<mxfile host="65bd71144e">
    <diagram id="MLjvnz5NLfU23QdqlTOa" name="Page-1">
        <mxGraphModel dx="1845" dy="1160" grid="1" gridSize="10" guides="1" tooltips="1" connect="1" arrows="1" fold="1" page="1" pageScale="1" pageWidth="850" pageHeight="1100" math="0" shadow="0">
            <root>
                <mxCell id="0"/>
                <mxCell id="1" parent="0"/>
                <mxCell id="3" value="" style="swimlane;startSize=0;" parent="1" vertex="1">
                    <mxGeometry x="1020" y="910" width="420" height="960" as="geometry">
                        <mxRectangle x="1020" y="910" width="50" height="40" as="alternateBounds"/>
                    </mxGeometry>
                </mxCell>
                <mxCell id="4" value="Profile Information" style="swimlane;fontStyle=2;align=center;verticalAlign=middle;childLayout=stackLayout;horizontal=1;startSize=26;horizontalStack=0;resizeParent=1;resizeLast=0;collapsible=1;marginBottom=0;rounded=0;shadow=0;strokeWidth=1;fontSize=16;" parent="3" vertex="1">
                    <mxGeometry x="20" y="800" width="320" height="150" as="geometry">
                        <mxRectangle x="430" y="60" width="160" height="26" as="alternateBounds"/>
                    </mxGeometry>
                </mxCell>
                <mxCell id="5" value="" style="line;html=1;strokeWidth=1;align=left;verticalAlign=middle;spacingTop=-1;spacingLeft=3;spacingRight=3;rotatable=0;labelPosition=right;points=[];portConstraint=eastwest;fontSize=16;" parent="4" vertex="1">
                    <mxGeometry y="26" width="320" height="8" as="geometry"/>
                </mxCell>
                <mxCell id="6" value="- profile_id" style="text;align=left;verticalAlign=middle;spacingLeft=4;spacingRight=4;overflow=hidden;rotatable=0;points=[[0,0.5],[1,0.5]];portConstraint=eastwest;fontSize=16;" parent="4" vertex="1">
                    <mxGeometry y="34" width="320" height="26" as="geometry"/>
                </mxCell>
                <mxCell id="7" value="- attachments []ðŸ”´ðŸ”´ðŸ”´ðŸ”´ðŸ”´" style="text;align=left;verticalAlign=middle;spacingLeft=4;spacingRight=4;overflow=hidden;rotatable=0;points=[[0,0.5],[1,0.5]];portConstraint=eastwest;fontSize=16;" parent="4" vertex="1">
                    <mxGeometry y="60" width="320" height="26" as="geometry"/>
                </mxCell>
                <mxCell id="8" value="- language âš¡ [ english / danish / swedish ]" style="text;align=left;verticalAlign=middle;spacingLeft=4;spacingRight=4;overflow=hidden;rotatable=0;points=[[0,0.5],[1,0.5]];portConstraint=eastwest;fontSize=16;" parent="4" vertex="1">
                    <mxGeometry y="86" width="320" height="26" as="geometry"/>
                </mxCell>
                <mxCell id="9" value="- userIdÂ  ðŸ”–Â FK" style="text;align=left;verticalAlign=middle;spacingLeft=4;spacingRight=4;overflow=hidden;rotatable=0;points=[[0,0.5],[1,0.5]];portConstraint=eastwest;fontSize=16;fillColor=#e1d5e7;strokeColor=#9673a6;" parent="4" vertex="1">
                    <mxGeometry y="112" width="320" height="26" as="geometry"/>
                </mxCell>
                <mxCell id="10" value="User ðŸ©¹ðŸŒ€" style="swimlane;fontStyle=2;align=center;verticalAlign=middle;childLayout=stackLayout;horizontal=1;startSize=26;horizontalStack=0;resizeParent=1;resizeLast=0;collapsible=1;marginBottom=0;rounded=0;shadow=0;strokeWidth=1;fillColor=#e1d5e7;strokeColor=#9673a6;fontSize=16;" parent="3" vertex="1">
                    <mxGeometry x="20" y="60" width="350" height="684" as="geometry">
                        <mxRectangle x="20" y="60" width="160" height="26" as="alternateBounds"/>
                    </mxGeometry>
                </mxCell>
                <mxCell id="11" value="" style="line;html=1;strokeWidth=1;align=left;verticalAlign=middle;spacingTop=-1;spacingLeft=3;spacingRight=3;rotatable=0;labelPosition=right;points=[];portConstraint=eastwest;fontSize=16;" parent="10" vertex="1">
                    <mxGeometry y="26" width="350" height="8" as="geometry"/>
                </mxCell>
                <mxCell id="12" value="- user_idÂ Â ðŸš—" style="text;align=left;verticalAlign=middle;spacingLeft=4;spacingRight=4;overflow=hidden;rotatable=0;points=[[0,0.5],[1,0.5]];portConstraint=eastwest;fontSize=16;" parent="10" vertex="1">
                    <mxGeometry y="34" width="350" height="26" as="geometry"/>
                </mxCell>
                <mxCell id="13" value="- user_custom_id" style="text;align=left;verticalAlign=middle;spacingLeft=4;spacingRight=4;overflow=hidden;rotatable=0;points=[[0,0.5],[1,0.5]];portConstraint=eastwest;fontSize=16;" parent="10" vertex="1">
                    <mxGeometry y="60" width="350" height="26" as="geometry"/>
                </mxCell>
                <mxCell id="14" value="- name" style="text;align=left;verticalAlign=middle;spacingLeft=4;spacingRight=4;overflow=hidden;rotatable=0;points=[[0,0.5],[1,0.5]];portConstraint=eastwest;fontSize=16;" parent="10" vertex="1">
                    <mxGeometry y="86" width="350" height="26" as="geometry"/>
                </mxCell>
                <mxCell id="15" value="- email" style="text;align=left;verticalAlign=middle;spacingLeft=4;spacingRight=4;overflow=hidden;rotatable=0;points=[[0,0.5],[1,0.5]];portConstraint=eastwest;fontSize=16;" parent="10" vertex="1">
                    <mxGeometry y="112" width="350" height="26" as="geometry"/>
                </mxCell>
                <mxCell id="16" value="- phoneNumber" style="text;align=left;verticalAlign=middle;spacingLeft=4;spacingRight=4;overflow=hidden;rotatable=0;points=[[0,0.5],[1,0.5]];portConstraint=eastwest;fontSize=16;" parent="10" vertex="1">
                    <mxGeometry y="138" width="350" height="26" as="geometry"/>
                </mxCell>
                <mxCell id="17" value="- profileImage ðŸ“¸" style="text;align=left;verticalAlign=middle;spacingLeft=4;spacingRight=4;overflow=hidden;rotatable=0;points=[[0,0.5],[1,0.5]];portConstraint=eastwest;fontSize=16;" parent="10" vertex="1">
                    <mxGeometry y="164" width="350" height="26" as="geometry"/>
                </mxCell>
                <mxCell id="18" value="- companyLogoImage ðŸ“¸" style="text;align=left;verticalAlign=middle;spacingLeft=4;spacingRight=4;overflow=hidden;rotatable=0;points=[[0,0.5],[1,0.5]];portConstraint=eastwest;fontSize=16;" parent="10" vertex="1">
                    <mxGeometry y="190" width="350" height="26" as="geometry"/>
                </mxCell>
                <mxCell id="19" value="- status âš¡ [Â Â activeÂ  / inactive /Â //accept / denyÂ  ]" style="text;align=left;verticalAlign=middle;spacingLeft=4;spacingRight=4;overflow=hidden;rotatable=0;points=[[0,0.5],[1,0.5]];portConstraint=eastwest;fontSize=16;" parent="10" vertex="1">
                    <mxGeometry y="216" width="350" height="26" as="geometry"/>
                </mxCell>
                <mxCell id="20" value="- role [ admin / manager / user / customer ]" style="text;align=left;verticalAlign=middle;spacingLeft=4;spacingRight=4;overflow=hidden;rotatable=0;points=[[0,0.5],[1,0.5]];portConstraint=eastwest;fontSize=16;fillColor=#fff2cc;strokeColor=#d6b656;" parent="10" vertex="1">
                    <mxGeometry y="242" width="350" height="26" as="geometry"/>
                </mxCell>
                <mxCell id="21" value="- hashedPassword" style="text;align=left;verticalAlign=middle;spacingLeft=4;spacingRight=4;overflow=hidden;rotatable=0;points=[[0,0.5],[1,0.5]];portConstraint=eastwest;fontSize=16;" parent="10" vertex="1">
                    <mxGeometry y="268" width="350" height="26" as="geometry"/>
                </mxCell>
                <mxCell id="22" value="- fcmToken" style="text;align=left;verticalAlign=middle;spacingLeft=4;spacingRight=4;overflow=hidden;rotatable=0;points=[[0,0.5],[1,0.5]];portConstraint=eastwest;fontSize=16;" parent="10" vertex="1">
                    <mxGeometry y="294" width="350" height="26" as="geometry"/>
                </mxCell>
                <mxCell id="23" value="- isEmailVerified" style="text;align=left;verticalAlign=middle;spacingLeft=4;spacingRight=4;overflow=hidden;rotatable=0;points=[[0,0.5],[1,0.5]];portConstraint=eastwest;fontSize=16;" parent="10" vertex="1">
                    <mxGeometry y="320" width="350" height="26" as="geometry"/>
                </mxCell>
                <mxCell id="24" value="- attachments[] // for profile picture" style="text;align=left;verticalAlign=middle;spacingLeft=4;spacingRight=4;overflow=hidden;rotatable=0;points=[[0,0.5],[1,0.5]];portConstraint=eastwest;fillColor=#cce5ff;strokeColor=#36393d;fontSize=16;" parent="10" vertex="1">
                    <mxGeometry y="346" width="350" height="26" as="geometry"/>
                </mxCell>
                <mxCell id="25" value="- isDeletedÂ âš¡Â booleanÂ " style="text;align=left;verticalAlign=middle;spacingLeft=4;spacingRight=4;overflow=hidden;rotatable=0;points=[[0,0.5],[1,0.5]];portConstraint=eastwest;fontSize=16;" parent="10" vertex="1">
                    <mxGeometry y="372" width="350" height="26" as="geometry"/>
                </mxCell>
                <mxCell id="26" value="- lastPasswordChange âš¡ Date" style="text;align=left;verticalAlign=middle;spacingLeft=4;spacingRight=4;overflow=hidden;rotatable=0;points=[[0,0.5],[1,0.5]];portConstraint=eastwest;fontSize=16;" parent="10" vertex="1">
                    <mxGeometry y="398" width="350" height="26" as="geometry"/>
                </mxCell>
                <mxCell id="27" value="- isResetPassword âš¡ Boolean" style="text;align=left;verticalAlign=middle;spacingLeft=4;spacingRight=4;overflow=hidden;rotatable=0;points=[[0,0.5],[1,0.5]];portConstraint=eastwest;fontSize=16;" parent="10" vertex="1">
                    <mxGeometry y="424" width="350" height="26" as="geometry"/>
                </mxCell>
                <mxCell id="28" value="- failedLoginAttemptsâš¡ Number" style="text;align=left;verticalAlign=middle;spacingLeft=4;spacingRight=4;overflow=hidden;rotatable=0;points=[[0,0.5],[1,0.5]];portConstraint=eastwest;fontSize=16;" parent="10" vertex="1">
                    <mxGeometry y="450" width="350" height="26" as="geometry"/>
                </mxCell>
                <mxCell id="29" value="- lockUntilâš¡ Date" style="text;align=left;verticalAlign=middle;spacingLeft=4;spacingRight=4;overflow=hidden;rotatable=0;points=[[0,0.5],[1,0.5]];portConstraint=eastwest;fontSize=16;" parent="10" vertex="1">
                    <mxGeometry y="476" width="350" height="26" as="geometry"/>
                </mxCell>
                <mxCell id="30" value="- authProviderâš¡ [Â  local ]" style="text;align=left;verticalAlign=middle;spacingLeft=4;spacingRight=4;overflow=hidden;rotatable=0;points=[[0,0.5],[1,0.5]];portConstraint=eastwest;fontSize=16;" parent="10" vertex="1">
                    <mxGeometry y="502" width="350" height="26" as="geometry"/>
                </mxCell>
                <mxCell id="31" value="- --------------------Â  ------Â " style="text;align=left;verticalAlign=middle;spacingLeft=4;spacingRight=4;overflow=hidden;rotatable=0;points=[[0,0.5],[1,0.5]];portConstraint=eastwest;fontSize=16;" parent="10" vertex="1">
                    <mxGeometry y="528" width="350" height="26" as="geometry"/>
                </mxCell>
                <mxCell id="32" value="- tenant_id âš¡ UUIDÂ " style="text;align=left;verticalAlign=middle;spacingLeft=4;spacingRight=4;overflow=hidden;rotatable=0;points=[[0,0.5],[1,0.5]];portConstraint=eastwest;fontSize=16;" parent="10" vertex="1">
                    <mxGeometry y="554" width="350" height="26" as="geometry"/>
                </mxCell>
                <mxCell id="33" value="- relatedEmployeeId ðŸ”–Â FKÂ Â " style="text;align=left;verticalAlign=middle;spacingLeft=4;spacingRight=4;overflow=hidden;rotatable=0;points=[[0,0.5],[1,0.5]];portConstraint=eastwest;fontSize=16;fillColor=#e1d5e7;strokeColor=#9673a6;" parent="10" vertex="1">
                    <mxGeometry y="580" width="350" height="26" as="geometry"/>
                </mxCell>
                <mxCell id="34" value="- designationForEmployeeâš¡stringÂ " style="text;align=left;verticalAlign=middle;spacingLeft=4;spacingRight=4;overflow=hidden;rotatable=0;points=[[0,0.5],[1,0.5]];portConstraint=eastwest;fontSize=16;" parent="10" vertex="1">
                    <mxGeometry y="606" width="350" height="26" as="geometry"/>
                </mxCell>
                <mxCell id="35" value="- canMessageâš¡booleanÂ " style="text;align=left;verticalAlign=middle;spacingLeft=4;spacingRight=4;overflow=hidden;rotatable=0;points=[[0,0.5],[1,0.5]];portConstraint=eastwest;fontSize=16;" parent="10" vertex="1">
                    <mxGeometry y="632" width="350" height="26" as="geometry"/>
                </mxCell>
                <mxCell id="36" value="User" style="text;html=1;align=center;verticalAlign=middle;resizable=0;points=[];autosize=1;strokeColor=none;fillColor=none;fontSize=35;" parent="3" vertex="1">
                    <mxGeometry x="30" width="100" height="60" as="geometry"/>
                </mxCell>
                <mxCell id="37" value="" style="swimlane;startSize=0;" parent="1" vertex="1">
                    <mxGeometry x="1890" y="920" width="420" height="540" as="geometry">
                        <mxRectangle x="780" y="540" width="50" height="40" as="alternateBounds"/>
                    </mxGeometry>
                </mxCell>
                <mxCell id="38" value="Site ðŸ©¹ðŸŒ€" style="swimlane;fontStyle=2;align=center;verticalAlign=middle;childLayout=stackLayout;horizontal=1;startSize=26;horizontalStack=0;resizeParent=1;resizeLast=0;collapsible=1;marginBottom=0;rounded=0;shadow=0;strokeWidth=1;fontSize=16;fillColor=#d5e8d4;strokeColor=#82b366;" parent="37" vertex="1">
                    <mxGeometry x="20" y="60" width="350" height="346" as="geometry">
                        <mxRectangle x="20" y="60" width="160" height="26" as="alternateBounds"/>
                    </mxGeometry>
                </mxCell>
                <mxCell id="39" value="" style="line;html=1;strokeWidth=1;align=left;verticalAlign=middle;spacingTop=-1;spacingLeft=3;spacingRight=3;rotatable=0;labelPosition=right;points=[];portConstraint=eastwest;fontSize=16;" parent="38" vertex="1">
                    <mxGeometry y="26" width="350" height="8" as="geometry"/>
                </mxCell>
                <mxCell id="40" value="- site_id" style="text;align=left;verticalAlign=middle;spacingLeft=4;spacingRight=4;overflow=hidden;rotatable=0;points=[[0,0.5],[1,0.5]];portConstraint=eastwest;fontSize=16;" parent="38" vertex="1">
                    <mxGeometry y="34" width="350" height="26" as="geometry"/>
                </mxCell>
                <mxCell id="41" value="- name" style="text;align=left;verticalAlign=middle;spacingLeft=4;spacingRight=4;overflow=hidden;rotatable=0;points=[[0,0.5],[1,0.5]];portConstraint=eastwest;fontSize=16;" parent="38" vertex="1">
                    <mxGeometry y="60" width="350" height="26" as="geometry"/>
                </mxCell>
                <mxCell id="42" value="- address" style="text;align=left;verticalAlign=middle;spacingLeft=4;spacingRight=4;overflow=hidden;rotatable=0;points=[[0,0.5],[1,0.5]];portConstraint=eastwest;fontSize=16;" parent="38" vertex="1">
                    <mxGeometry y="86" width="350" height="26" as="geometry"/>
                </mxCell>
                <mxCell id="43" value="- phoneNumber" style="text;align=left;verticalAlign=middle;spacingLeft=4;spacingRight=4;overflow=hidden;rotatable=0;points=[[0,0.5],[1,0.5]];portConstraint=eastwest;fontSize=16;" parent="38" vertex="1">
                    <mxGeometry y="112" width="350" height="26" as="geometry"/>
                </mxCell>
                <mxCell id="44" value="- customerNameÂ " style="text;align=left;verticalAlign=middle;spacingLeft=4;spacingRight=4;overflow=hidden;rotatable=0;points=[[0,0.5],[1,0.5]];portConstraint=eastwest;fontSize=16;fillColor=#eeeeee;strokeColor=#36393d;" parent="38" vertex="1">
                    <mxGeometry y="138" width="350" height="26" as="geometry"/>
                </mxCell>
                <mxCell id="45" value="- statusâš¡ [Â  active / inactive ]" style="text;align=left;verticalAlign=middle;spacingLeft=4;spacingRight=4;overflow=hidden;rotatable=0;points=[[0,0.5],[1,0.5]];portConstraint=eastwest;fontSize=16;" parent="38" vertex="1">
                    <mxGeometry y="164" width="350" height="26" as="geometry"/>
                </mxCell>
                <mxCell id="46" value="- attachments[] // for profile picture" style="text;align=left;verticalAlign=middle;spacingLeft=4;spacingRight=4;overflow=hidden;rotatable=0;points=[[0,0.5],[1,0.5]];portConstraint=eastwest;fillColor=#cce5ff;strokeColor=#36393d;fontSize=16;" parent="38" vertex="1">
                    <mxGeometry y="190" width="350" height="26" as="geometry"/>
                </mxCell>
                <mxCell id="47" value="- isDeletedÂ âš¡Â booleanÂ " style="text;align=left;verticalAlign=middle;spacingLeft=4;spacingRight=4;overflow=hidden;rotatable=0;points=[[0,0.5],[1,0.5]];portConstraint=eastwest;fontSize=16;" parent="38" vertex="1">
                    <mxGeometry y="216" width="350" height="26" as="geometry"/>
                </mxCell>
                <mxCell id="48" value="- tenant_id âš¡ UUIDÂ " style="text;align=left;verticalAlign=middle;spacingLeft=4;spacingRight=4;overflow=hidden;rotatable=0;points=[[0,0.5],[1,0.5]];portConstraint=eastwest;fontSize=16;" parent="38" vertex="1">
                    <mxGeometry y="242" width="350" height="26" as="geometry"/>
                </mxCell>
                <mxCell id="49" value="- lat" style="text;align=left;verticalAlign=middle;spacingLeft=4;spacingRight=4;overflow=hidden;rotatable=0;points=[[0,0.5],[1,0.5]];portConstraint=eastwest;fontSize=16;fillColor=#eeeeee;strokeColor=#36393d;" parent="38" vertex="1">
                    <mxGeometry y="268" width="350" height="26" as="geometry"/>
                </mxCell>
                <mxCell id="50" value="- long" style="text;align=left;verticalAlign=middle;spacingLeft=4;spacingRight=4;overflow=hidden;rotatable=0;points=[[0,0.5],[1,0.5]];portConstraint=eastwest;fontSize=16;fillColor=#eeeeee;strokeColor=#36393d;" parent="38" vertex="1">
                    <mxGeometry y="294" width="350" height="26" as="geometry"/>
                </mxCell>
                <mxCell id="51" value="- type" style="text;align=left;verticalAlign=middle;spacingLeft=4;spacingRight=4;overflow=hidden;rotatable=0;points=[[0,0.5],[1,0.5]];portConstraint=eastwest;fontSize=16;fillColor=#eeeeee;strokeColor=#36393d;" parent="38" vertex="1">
                    <mxGeometry y="320" width="350" height="26" as="geometry"/>
                </mxCell>
                <mxCell id="52" value="Site" style="text;html=1;align=center;verticalAlign=middle;resizable=0;points=[];autosize=1;strokeColor=none;fillColor=none;fontSize=35;" parent="37" vertex="1">
                    <mxGeometry x="40" width="80" height="60" as="geometry"/>
                </mxCell>
                <mxCell id="53" value="" style="swimlane;startSize=0;strokeColor=#FF0000;" parent="1" vertex="1">
                    <mxGeometry x="1460" y="880" width="420" height="1310" as="geometry">
                        <mxRectangle x="780" y="540" width="50" height="40" as="alternateBounds"/>
                    </mxGeometry>
                </mxCell>
                <mxCell id="54" value="User Site RelationÂ  ðŸ©¹ðŸŒ€" style="swimlane;fontStyle=2;align=center;verticalAlign=middle;childLayout=stackLayout;horizontal=1;startSize=26;horizontalStack=0;resizeParent=1;resizeLast=0;collapsible=1;marginBottom=0;rounded=0;shadow=0;strokeWidth=1;fontSize=16;" parent="53" vertex="1">
                    <mxGeometry x="35" y="60" width="350" height="250" as="geometry">
                        <mxRectangle x="20" y="60" width="160" height="26" as="alternateBounds"/>
                    </mxGeometry>
                </mxCell>
                <mxCell id="55" value="" style="line;html=1;strokeWidth=1;align=left;verticalAlign=middle;spacingTop=-1;spacingLeft=3;spacingRight=3;rotatable=0;labelPosition=right;points=[];portConstraint=eastwest;fontSize=16;" parent="54" vertex="1">
                    <mxGeometry y="26" width="350" height="8" as="geometry"/>
                </mxCell>
                <mxCell id="56" value="- user_site_relation_id" style="text;align=left;verticalAlign=middle;spacingLeft=4;spacingRight=4;overflow=hidden;rotatable=0;points=[[0,0.5],[1,0.5]];portConstraint=eastwest;fontSize=16;" parent="54" vertex="1">
                    <mxGeometry y="34" width="350" height="26" as="geometry"/>
                </mxCell>
                <mxCell id="57" value="- personId ðŸ”–Â FK" style="text;align=left;verticalAlign=middle;spacingLeft=4;spacingRight=4;overflow=hidden;rotatable=0;points=[[0,0.5],[1,0.5]];portConstraint=eastwest;fontSize=16;fillColor=#e1d5e7;strokeColor=#9673a6;" parent="54" vertex="1">
                    <mxGeometry y="60" width="350" height="26" as="geometry"/>
                </mxCell>
                <mxCell id="58" value="- site_Id ðŸ”–Â FK" style="text;align=left;verticalAlign=middle;spacingLeft=4;spacingRight=4;overflow=hidden;rotatable=0;points=[[0,0.5],[1,0.5]];portConstraint=eastwest;fontSize=16;" parent="54" vertex="1">
                    <mxGeometry y="86" width="350" height="26" as="geometry"/>
                </mxCell>
                <mxCell id="59" value="- roleÂ [ admin / manager / user / customer ]Â " style="text;align=left;verticalAlign=middle;spacingLeft=4;spacingRight=4;overflow=hidden;rotatable=0;points=[[0,0.5],[1,0.5]];portConstraint=eastwest;fontSize=16;fillColor=#eeeeee;strokeColor=#36393d;" parent="54" vertex="1">
                    <mxGeometry y="112" width="350" height="26" as="geometry"/>
                </mxCell>
                <mxCell id="60" value="- work_hours âš¡Â Â number" style="text;align=left;verticalAlign=middle;spacingLeft=4;spacingRight=4;overflow=hidden;rotatable=0;points=[[0,0.5],[1,0.5]];portConstraint=eastwest;fontSize=16;" parent="54" vertex="1">
                    <mxGeometry y="138" width="350" height="26" as="geometry"/>
                </mxCell>
                <mxCell id="61" value="Relations" style="text;html=1;align=center;verticalAlign=middle;resizable=0;points=[];autosize=1;strokeColor=none;fillColor=none;fontSize=35;" parent="53" vertex="1">
                    <mxGeometry x="10" width="170" height="60" as="geometry"/>
                </mxCell>
                <mxCell id="62" value="Camera Site Relation ðŸ©¹ðŸŒ€" style="swimlane;fontStyle=2;align=center;verticalAlign=middle;childLayout=stackLayout;horizontal=1;startSize=26;horizontalStack=0;resizeParent=1;resizeLast=0;collapsible=1;marginBottom=0;rounded=0;shadow=0;strokeWidth=1;fontSize=16;fillColor=#ffe6cc;strokeColor=#d79b00;" parent="53" vertex="1">
                    <mxGeometry x="40" y="890" width="350" height="160" as="geometry">
                        <mxRectangle x="20" y="60" width="160" height="26" as="alternateBounds"/>
                    </mxGeometry>
                </mxCell>
                <mxCell id="63" value="" style="line;html=1;strokeWidth=1;align=left;verticalAlign=middle;spacingTop=-1;spacingLeft=3;spacingRight=3;rotatable=0;labelPosition=right;points=[];portConstraint=eastwest;fontSize=16;" parent="62" vertex="1">
                    <mxGeometry y="26" width="350" height="8" as="geometry"/>
                </mxCell>
                <mxCell id="64" value="- camera_site_relation_id" style="text;align=left;verticalAlign=middle;spacingLeft=4;spacingRight=4;overflow=hidden;rotatable=0;points=[[0,0.5],[1,0.5]];portConstraint=eastwest;fontSize=16;" parent="62" vertex="1">
                    <mxGeometry y="34" width="350" height="26" as="geometry"/>
                </mxCell>
                <mxCell id="65" value="- camera_Id ðŸ”–Â FK" style="text;align=left;verticalAlign=middle;spacingLeft=4;spacingRight=4;overflow=hidden;rotatable=0;points=[[0,0.5],[1,0.5]];portConstraint=eastwest;fontSize=16;" parent="62" vertex="1">
                    <mxGeometry y="60" width="350" height="26" as="geometry"/>
                </mxCell>
                <mxCell id="66" value="- site_Id ðŸ”–Â FK" style="text;align=left;verticalAlign=middle;spacingLeft=4;spacingRight=4;overflow=hidden;rotatable=0;points=[[0,0.5],[1,0.5]];portConstraint=eastwest;fontSize=16;" parent="62" vertex="1">
                    <mxGeometry y="86" width="350" height="26" as="geometry"/>
                </mxCell>
                <mxCell id="67" value="Customer Report Relation ðŸ©¹ðŸŒ€" style="swimlane;fontStyle=2;align=center;verticalAlign=middle;childLayout=stackLayout;horizontal=1;startSize=26;horizontalStack=0;resizeParent=1;resizeLast=0;collapsible=1;marginBottom=0;rounded=0;shadow=0;strokeWidth=1;fontSize=16;fillColor=#b0e3e6;strokeColor=#0e8088;" parent="53" vertex="1">
                    <mxGeometry x="40" y="340" width="350" height="164" as="geometry">
                        <mxRectangle x="20" y="60" width="160" height="26" as="alternateBounds"/>
                    </mxGeometry>
                </mxCell>
                <mxCell id="68" value="" style="line;html=1;strokeWidth=1;align=left;verticalAlign=middle;spacingTop=-1;spacingLeft=3;spacingRight=3;rotatable=0;labelPosition=right;points=[];portConstraint=eastwest;fontSize=16;" parent="67" vertex="1">
                    <mxGeometry y="26" width="350" height="8" as="geometry"/>
                </mxCell>
                <mxCell id="69" value="- customer_report_relation_id" style="text;align=left;verticalAlign=middle;spacingLeft=4;spacingRight=4;overflow=hidden;rotatable=0;points=[[0,0.5],[1,0.5]];portConstraint=eastwest;fontSize=16;" parent="67" vertex="1">
                    <mxGeometry y="34" width="350" height="26" as="geometry"/>
                </mxCell>
                <mxCell id="70" value="- personId ðŸ”–Â FK" style="text;align=left;verticalAlign=middle;spacingLeft=4;spacingRight=4;overflow=hidden;rotatable=0;points=[[0,0.5],[1,0.5]];portConstraint=eastwest;fontSize=16;fillColor=#e1d5e7;strokeColor=#9673a6;" parent="67" vertex="1">
                    <mxGeometry y="60" width="350" height="26" as="geometry"/>
                </mxCell>
                <mxCell id="71" value="- report_Id ðŸ”–Â FK" style="text;align=left;verticalAlign=middle;spacingLeft=4;spacingRight=4;overflow=hidden;rotatable=0;points=[[0,0.5],[1,0.5]];portConstraint=eastwest;fontSize=16;" parent="67" vertex="1">
                    <mxGeometry y="86" width="350" height="26" as="geometry"/>
                </mxCell>
                <mxCell id="72" value="- roleÂ [ admin / manager / user / customer ]Â " style="text;align=left;verticalAlign=middle;spacingLeft=4;spacingRight=4;overflow=hidden;rotatable=0;points=[[0,0.5],[1,0.5]];portConstraint=eastwest;fontSize=16;" parent="67" vertex="1">
                    <mxGeometry y="112" width="350" height="26" as="geometry"/>
                </mxCell>
                <mxCell id="73" value="- reportType[Â  /Â  /Â  / ]Â " style="text;align=left;verticalAlign=middle;spacingLeft=4;spacingRight=4;overflow=hidden;rotatable=0;points=[[0,0.5],[1,0.5]];portConstraint=eastwest;fontSize=16;fillColor=#f5f5f5;fontColor=#333333;strokeColor=#666666;" parent="67" vertex="1">
                    <mxGeometry y="138" width="350" height="26" as="geometry"/>
                </mxCell>
                <mxCell id="74" value="Report ki shudhu customer e korte&lt;div data--h-bstatus=&quot;0OBSERVED&quot;&gt;parbe ? ei flow er ki hobe?&amp;nbsp;&lt;/div&gt;&lt;div data--h-bstatus=&quot;0OBSERVED&quot;&gt;fix korte hobe ..&amp;nbsp;&amp;nbsp;&lt;span style=&quot;background-color: transparent; color: light-dark(rgb(0, 0, 0), rgb(255, 255, 255));&quot;&gt;FIXEDðŸŸ¢&lt;/span&gt;&lt;/div&gt;" style="shape=note;whiteSpace=wrap;html=1;backgroundOutline=1;darkOpacity=0.05;fillColor=#ffcc99;strokeColor=#36393d;" parent="53" vertex="1">
                    <mxGeometry x="67.5" y="1210" width="255" height="60" as="geometry"/>
                </mxCell>
                <mxCell id="75" value="Camera Customer Relation ðŸ©¹ðŸŒ€" style="swimlane;fontStyle=2;align=center;verticalAlign=middle;childLayout=stackLayout;horizontal=1;startSize=26;horizontalStack=0;resizeParent=1;resizeLast=0;collapsible=1;marginBottom=0;rounded=0;shadow=0;strokeWidth=1;fontSize=16;fillColor=#ffe6cc;strokeColor=#d79b00;" parent="53" vertex="1">
                    <mxGeometry x="40" y="675" width="350" height="190" as="geometry">
                        <mxRectangle x="20" y="60" width="160" height="26" as="alternateBounds"/>
                    </mxGeometry>
                </mxCell>
                <mxCell id="76" value="" style="line;html=1;strokeWidth=1;align=left;verticalAlign=middle;spacingTop=-1;spacingLeft=3;spacingRight=3;rotatable=0;labelPosition=right;points=[];portConstraint=eastwest;fontSize=16;" parent="75" vertex="1">
                    <mxGeometry y="26" width="350" height="8" as="geometry"/>
                </mxCell>
                <mxCell id="77" value="- camera_customer_relation_id" style="text;align=left;verticalAlign=middle;spacingLeft=4;spacingRight=4;overflow=hidden;rotatable=0;points=[[0,0.5],[1,0.5]];portConstraint=eastwest;fontSize=16;" parent="75" vertex="1">
                    <mxGeometry y="34" width="350" height="26" as="geometry"/>
                </mxCell>
                <mxCell id="78" value="- camera_Id ðŸ”–Â FK" style="text;align=left;verticalAlign=middle;spacingLeft=4;spacingRight=4;overflow=hidden;rotatable=0;points=[[0,0.5],[1,0.5]];portConstraint=eastwest;fontSize=16;" parent="75" vertex="1">
                    <mxGeometry y="60" width="350" height="26" as="geometry"/>
                </mxCell>
                <mxCell id="79" value="- person_Id ðŸ”–Â FK" style="text;align=left;verticalAlign=middle;spacingLeft=4;spacingRight=4;overflow=hidden;rotatable=0;points=[[0,0.5],[1,0.5]];portConstraint=eastwest;fontSize=16;" parent="75" vertex="1">
                    <mxGeometry y="86" width="350" height="26" as="geometry"/>
                </mxCell>
                <mxCell id="80" value="- role [ customerÂ  / user / manager / admin] ðŸ”´ðŸ”´" style="text;align=left;verticalAlign=middle;spacingLeft=4;spacingRight=4;overflow=hidden;rotatable=0;points=[[0,0.5],[1,0.5]];portConstraint=eastwest;fontSize=16;fillColor=#f8cecc;strokeColor=#b85450;" parent="75" vertex="1">
                    <mxGeometry y="112" width="350" height="26" as="geometry"/>
                </mxCell>
                <mxCell id="81" value="- site_Id ðŸ”–Â FKÂ " style="text;align=left;verticalAlign=middle;spacingLeft=4;spacingRight=4;overflow=hidden;rotatable=0;points=[[0,0.5],[1,0.5]];portConstraint=eastwest;fontSize=16;" parent="75" vertex="1">
                    <mxGeometry y="138" width="350" height="26" as="geometry"/>
                </mxCell>
                <mxCell id="82" value="- status âš¡Â  [ enable / disable ]" style="text;align=left;verticalAlign=middle;spacingLeft=4;spacingRight=4;overflow=hidden;rotatable=0;points=[[0,0.5],[1,0.5]];portConstraint=eastwest;fontSize=16;" parent="75" vertex="1">
                    <mxGeometry y="164" width="350" height="26" as="geometry"/>
                </mxCell>
                <mxCell id="83" value="Report type is must needed so that&amp;nbsp;&lt;div&gt;we can filter by report Type&lt;/div&gt;" style="shape=note;whiteSpace=wrap;html=1;backgroundOutline=1;darkOpacity=0.05;fillColor=#ffcc99;strokeColor=#36393d;" parent="53" vertex="1">
                    <mxGeometry x="50" y="520" width="255" height="60" as="geometry"/>
                </mxCell>
                <mxCell id="84" value="" style="swimlane;startSize=0;" parent="1" vertex="1">
                    <mxGeometry x="1030" y="1980" width="420" height="720" as="geometry">
                        <mxRectangle x="780" y="540" width="50" height="40" as="alternateBounds"/>
                    </mxGeometry>
                </mxCell>
                <mxCell id="85" value="Camera ðŸ©¹ðŸŒ€" style="swimlane;fontStyle=2;align=center;verticalAlign=middle;childLayout=stackLayout;horizontal=1;startSize=26;horizontalStack=0;resizeParent=1;resizeLast=0;collapsible=1;marginBottom=0;rounded=0;shadow=0;strokeWidth=1;fontSize=16;fillColor=#ffe6cc;strokeColor=#d79b00;" parent="84" vertex="1">
                    <mxGeometry x="20" y="60" width="350" height="476" as="geometry">
                        <mxRectangle x="20" y="60" width="160" height="26" as="alternateBounds"/>
                    </mxGeometry>
                </mxCell>
                <mxCell id="86" value="" style="line;html=1;strokeWidth=1;align=left;verticalAlign=middle;spacingTop=-1;spacingLeft=3;spacingRight=3;rotatable=0;labelPosition=right;points=[];portConstraint=eastwest;fontSize=16;" parent="85" vertex="1">
                    <mxGeometry y="26" width="350" height="8" as="geometry"/>
                </mxCell>
                <mxCell id="87" value="- camera_idÂ Â ðŸš—" style="text;align=left;verticalAlign=middle;spacingLeft=4;spacingRight=4;overflow=hidden;rotatable=0;points=[[0,0.5],[1,0.5]];portConstraint=eastwest;fontSize=16;" parent="85" vertex="1">
                    <mxGeometry y="34" width="350" height="26" as="geometry"/>
                </mxCell>
                <mxCell id="88" value="- camera_nameâš¡Â string" style="text;align=left;verticalAlign=middle;spacingLeft=4;spacingRight=4;overflow=hidden;rotatable=0;points=[[0,0.5],[1,0.5]];portConstraint=eastwest;fontSize=16;" parent="85" vertex="1">
                    <mxGeometry y="60" width="350" height="26" as="geometry"/>
                </mxCell>
                <mxCell id="89" value="- site_nameâš¡Â stringÂ " style="text;align=left;verticalAlign=middle;spacingLeft=4;spacingRight=4;overflow=hidden;rotatable=0;points=[[0,0.5],[1,0.5]];portConstraint=eastwest;fontSize=16;fillColor=#f5f5f5;fontColor=#333333;strokeColor=#666666;" parent="85" vertex="1">
                    <mxGeometry y="86" width="350" height="26" as="geometry"/>
                </mxCell>
                <mxCell id="90" value="- localLocation âš¡Â string" style="text;align=left;verticalAlign=middle;spacingLeft=4;spacingRight=4;overflow=hidden;rotatable=0;points=[[0,0.5],[1,0.5]];portConstraint=eastwest;fontSize=16;" parent="85" vertex="1">
                    <mxGeometry y="112" width="350" height="26" as="geometry"/>
                </mxCell>
                <mxCell id="91" value="- globalLocation âš¡Â string" style="text;align=left;verticalAlign=middle;spacingLeft=4;spacingRight=4;overflow=hidden;rotatable=0;points=[[0,0.5],[1,0.5]];portConstraint=eastwest;fontSize=16;" parent="85" vertex="1">
                    <mxGeometry y="138" width="350" height="26" as="geometry"/>
                </mxCell>
                <mxCell id="92" value="- latâš¡Â string" style="text;align=left;verticalAlign=middle;spacingLeft=4;spacingRight=4;overflow=hidden;rotatable=0;points=[[0,0.5],[1,0.5]];portConstraint=eastwest;fontSize=16;" parent="85" vertex="1">
                    <mxGeometry y="164" width="350" height="26" as="geometry"/>
                </mxCell>
                <mxCell id="93" value="- longâš¡Â string" style="text;align=left;verticalAlign=middle;spacingLeft=4;spacingRight=4;overflow=hidden;rotatable=0;points=[[0,0.5],[1,0.5]];portConstraint=eastwest;fontSize=16;" parent="85" vertex="1">
                    <mxGeometry y="190" width="350" height="26" as="geometry"/>
                </mxCell>
                <mxCell id="94" value="- status âš¡Â  [ working / offline ]" style="text;align=left;verticalAlign=middle;spacingLeft=4;spacingRight=4;overflow=hidden;rotatable=0;points=[[0,0.5],[1,0.5]];portConstraint=eastwest;fontSize=16;" parent="85" vertex="1">
                    <mxGeometry y="216" width="350" height="26" as="geometry"/>
                </mxCell>
                <mxCell id="95" value="- attachments[] // for profile picture" style="text;align=left;verticalAlign=middle;spacingLeft=4;spacingRight=4;overflow=hidden;rotatable=0;points=[[0,0.5],[1,0.5]];portConstraint=eastwest;fillColor=#cce5ff;strokeColor=#36393d;fontSize=16;" parent="85" vertex="1">
                    <mxGeometry y="242" width="350" height="26" as="geometry"/>
                </mxCell>
                <mxCell id="96" value="- assignedManagerId ðŸ”–Â FK" style="text;align=left;verticalAlign=middle;spacingLeft=4;spacingRight=4;overflow=hidden;rotatable=0;points=[[0,0.5],[1,0.5]];portConstraint=eastwest;fontSize=16;fillColor=#e1d5e7;strokeColor=#9673a6;" parent="85" vertex="1">
                    <mxGeometry y="268" width="350" height="26" as="geometry"/>
                </mxCell>
                <mxCell id="97" value="- assignedUserId ðŸ”–Â FK [ means Employee Id ]" style="text;align=left;verticalAlign=middle;spacingLeft=4;spacingRight=4;overflow=hidden;rotatable=0;points=[[0,0.5],[1,0.5]];portConstraint=eastwest;fontSize=16;fillColor=#e1d5e7;strokeColor=#9673a6;" parent="85" vertex="1">
                    <mxGeometry y="294" width="350" height="26" as="geometry"/>
                </mxCell>
                <mxCell id="98" value="-Â descriptionâš¡Â string" style="text;align=left;verticalAlign=middle;spacingLeft=4;spacingRight=4;overflow=hidden;rotatable=0;points=[[0,0.5],[1,0.5]];portConstraint=eastwest;fontSize=16;" parent="85" vertex="1">
                    <mxGeometry y="320" width="350" height="26" as="geometry"/>
                </mxCell>
                <mxCell id="99" value="- camera_ipâš¡Â  string" style="text;align=left;verticalAlign=middle;spacingLeft=4;spacingRight=4;overflow=hidden;rotatable=0;points=[[0,0.5],[1,0.5]];portConstraint=eastwest;fontSize=16;" parent="85" vertex="1">
                    <mxGeometry y="346" width="350" height="26" as="geometry"/>
                </mxCell>
                <mxCell id="100" value="- cameraPortâš¡Â string" style="text;align=left;verticalAlign=middle;spacingLeft=4;spacingRight=4;overflow=hidden;rotatable=0;points=[[0,0.5],[1,0.5]];portConstraint=eastwest;fontSize=16;" parent="85" vertex="1">
                    <mxGeometry y="372" width="350" height="26" as="geometry"/>
                </mxCell>
                <mxCell id="101" value="- camera_passwordâš¡Â string" style="text;align=left;verticalAlign=middle;spacingLeft=4;spacingRight=4;overflow=hidden;rotatable=0;points=[[0,0.5],[1,0.5]];portConstraint=eastwest;fontSize=16;" parent="85" vertex="1">
                    <mxGeometry y="398" width="350" height="26" as="geometry"/>
                </mxCell>
                <mxCell id="102" value="- isDeletedÂ âš¡Â booleanÂ " style="text;align=left;verticalAlign=middle;spacingLeft=4;spacingRight=4;overflow=hidden;rotatable=0;points=[[0,0.5],[1,0.5]];portConstraint=eastwest;fontSize=16;" parent="85" vertex="1">
                    <mxGeometry y="424" width="350" height="26" as="geometry"/>
                </mxCell>
                <mxCell id="103" value="Camera" style="text;html=1;align=center;verticalAlign=middle;resizable=0;points=[];autosize=1;strokeColor=none;fillColor=none;fontSize=35;" parent="84" vertex="1">
                    <mxGeometry x="5" width="150" height="60" as="geometry"/>
                </mxCell>
                <mxCell id="104" value="" style="swimlane;startSize=0;" parent="1" vertex="1">
                    <mxGeometry x="1900" y="1480" width="620" height="590" as="geometry">
                        <mxRectangle x="780" y="540" width="50" height="40" as="alternateBounds"/>
                    </mxGeometry>
                </mxCell>
                <mxCell id="105" value="Report ðŸ©¹ðŸŒ€" style="swimlane;fontStyle=2;align=center;verticalAlign=middle;childLayout=stackLayout;horizontal=1;startSize=26;horizontalStack=0;resizeParent=1;resizeLast=0;collapsible=1;marginBottom=0;rounded=0;shadow=0;strokeWidth=1;fontSize=16;fillColor=#b0e3e6;strokeColor=#0e8088;" parent="104" vertex="1">
                    <mxGeometry x="20" y="60" width="550" height="398" as="geometry">
                        <mxRectangle x="20" y="60" width="160" height="26" as="alternateBounds"/>
                    </mxGeometry>
                </mxCell>
                <mxCell id="106" value="" style="line;html=1;strokeWidth=1;align=left;verticalAlign=middle;spacingTop=-1;spacingLeft=3;spacingRight=3;rotatable=0;labelPosition=right;points=[];portConstraint=eastwest;fontSize=16;" parent="105" vertex="1">
                    <mxGeometry y="26" width="550" height="8" as="geometry"/>
                </mxCell>
                <mxCell id="107" value="- report_id" style="text;align=left;verticalAlign=middle;spacingLeft=4;spacingRight=4;overflow=hidden;rotatable=0;points=[[0,0.5],[1,0.5]];portConstraint=eastwest;fontSize=16;" parent="105" vertex="1">
                    <mxGeometry y="34" width="550" height="26" as="geometry"/>
                </mxCell>
                <mxCell id="108" value="- report_type [ ap orÂ alarm patrolÂ /Â patrol reportÂ / serviceÂ  / emergency-callout ]" style="text;align=left;verticalAlign=middle;spacingLeft=4;spacingRight=4;overflow=hidden;rotatable=0;points=[[0,0.5],[1,0.5]];portConstraint=eastwest;fontSize=16;" parent="105" vertex="1">
                    <mxGeometry y="60" width="550" height="26" as="geometry"/>
                </mxCell>
                <mxCell id="109" value="- incident_sevearity [ lowÂ  /Â  mediumÂ  / high]" style="text;align=left;verticalAlign=middle;spacingLeft=4;spacingRight=4;overflow=hidden;rotatable=0;points=[[0,0.5],[1,0.5]];portConstraint=eastwest;fontSize=16;" parent="105" vertex="1">
                    <mxGeometry y="86" width="550" height="26" as="geometry"/>
                </mxCell>
                <mxCell id="110" value="- description âš¡Â string" style="text;align=left;verticalAlign=middle;spacingLeft=4;spacingRight=4;overflow=hidden;rotatable=0;points=[[0,0.5],[1,0.5]];portConstraint=eastwest;fontSize=16;" parent="105" vertex="1">
                    <mxGeometry y="112" width="550" height="26" as="geometry"/>
                </mxCell>
                <mxCell id="111" value="- titleâš¡Â string" style="text;align=left;verticalAlign=middle;spacingLeft=4;spacingRight=4;overflow=hidden;rotatable=0;points=[[0,0.5],[1,0.5]];portConstraint=eastwest;fontSize=16;" parent="105" vertex="1">
                    <mxGeometry y="138" width="550" height="26" as="geometry"/>
                </mxCell>
                <mxCell id="112" value="- location âš¡stringÂ " style="text;align=left;verticalAlign=middle;spacingLeft=4;spacingRight=4;overflow=hidden;rotatable=0;points=[[0,0.5],[1,0.5]];portConstraint=eastwest;fontSize=16;" parent="105" vertex="1">
                    <mxGeometry y="164" width="550" height="26" as="geometry"/>
                </mxCell>
                <mxCell id="113" value="- personNameÂ  ðŸ”´ðŸ”´ðŸ”´ we don&#39;t need this .. we add person field in steadÂ " style="text;align=left;verticalAlign=middle;spacingLeft=4;spacingRight=4;overflow=hidden;rotatable=0;points=[[0,0.5],[1,0.5]];portConstraint=eastwest;fontSize=16;fillColor=#f5f5f5;fontColor=#333333;strokeColor=#666666;" parent="105" vertex="1">
                    <mxGeometry y="190" width="550" height="26" as="geometry"/>
                </mxCell>
                <mxCell id="114" value="- statusâš¡ [Â  acceptÂ  / denyÂ  /Â underReviewÂ ]" style="text;align=left;verticalAlign=middle;spacingLeft=4;spacingRight=4;overflow=hidden;rotatable=0;points=[[0,0.5],[1,0.5]];portConstraint=eastwest;fontSize=16;" parent="105" vertex="1">
                    <mxGeometry y="216" width="550" height="26" as="geometry"/>
                </mxCell>
                <mxCell id="115" value="- attachments[]Â " style="text;align=left;verticalAlign=middle;spacingLeft=4;spacingRight=4;overflow=hidden;rotatable=0;points=[[0,0.5],[1,0.5]];portConstraint=eastwest;fillColor=#cce5ff;strokeColor=#36393d;fontSize=16;" parent="105" vertex="1">
                    <mxGeometry y="242" width="550" height="26" as="geometry"/>
                </mxCell>
                <mxCell id="116" value="- timestamp ðŸ“…Â Â ðŸš—Â " style="text;align=left;verticalAlign=middle;spacingLeft=4;spacingRight=4;overflow=hidden;rotatable=0;points=[[0,0.5],[1,0.5]];portConstraint=eastwest;fontSize=16;" parent="105" vertex="1">
                    <mxGeometry y="268" width="550" height="26" as="geometry"/>
                </mxCell>
                <mxCell id="117" value="- isDeletedÂ âš¡Â booleanÂ " style="text;align=left;verticalAlign=middle;spacingLeft=4;spacingRight=4;overflow=hidden;rotatable=0;points=[[0,0.5],[1,0.5]];portConstraint=eastwest;fontSize=16;" parent="105" vertex="1">
                    <mxGeometry y="294" width="550" height="26" as="geometry"/>
                </mxCell>
                <mxCell id="118" value="- tenant_id âš¡ UUIDÂ " style="text;align=left;verticalAlign=middle;spacingLeft=4;spacingRight=4;overflow=hidden;rotatable=0;points=[[0,0.5],[1,0.5]];portConstraint=eastwest;fontSize=16;" parent="105" vertex="1">
                    <mxGeometry y="320" width="550" height="26" as="geometry"/>
                </mxCell>
                <mxCell id="119" value="- siteId ðŸ”–Â FK" style="text;align=left;verticalAlign=middle;spacingLeft=4;spacingRight=4;overflow=hidden;rotatable=0;points=[[0,0.5],[1,0.5]];portConstraint=eastwest;fontSize=16;fillColor=#d5e8d4;strokeColor=#82b366;" parent="105" vertex="1">
                    <mxGeometry y="346" width="550" height="26" as="geometry"/>
                </mxCell>
                <mxCell id="120" value="- person ðŸ”–ðŸ”–ðŸ”–Â  this is not for relationship .. this is just for show valueÂ " style="text;align=left;verticalAlign=middle;spacingLeft=4;spacingRight=4;overflow=hidden;rotatable=0;points=[[0,0.5],[1,0.5]];portConstraint=eastwest;fontSize=16;fillColor=#d5e8d4;strokeColor=#82b366;" parent="105" vertex="1">
                    <mxGeometry y="372" width="550" height="26" as="geometry"/>
                </mxCell>
                <mxCell id="121" value="Report" style="text;html=1;align=center;verticalAlign=middle;resizable=0;points=[];autosize=1;strokeColor=none;fillColor=none;fontSize=35;" parent="104" vertex="1">
                    <mxGeometry x="20" width="130" height="60" as="geometry"/>
                </mxCell>
                <mxCell id="122" value="location koi&amp;nbsp;&amp;nbsp;&lt;span data--h-bstatus=&quot;0OBSERVED&quot; style=&quot;background-color: transparent; color: light-dark(rgb(0, 0, 0), rgb(255, 255, 255));&quot;&gt;theke&amp;nbsp;&lt;/span&gt;&lt;span data--h-bstatus=&quot;0OBSERVED&quot; style=&quot;background-color: transparent; color: light-dark(rgb(0, 0, 0), rgb(255, 255, 255));&quot;&gt;ashbe ?&lt;br data--h-bstatus=&quot;0OBSERVED&quot;&gt;in Customer Section&lt;br data--h-bstatus=&quot;0OBSERVED&quot;&gt;FIXEDðŸŸ¢&lt;/span&gt;" style="shape=note;whiteSpace=wrap;html=1;backgroundOutline=1;darkOpacity=0.05;fillColor=#ffcc99;strokeColor=#36393d;" parent="104" vertex="1">
                    <mxGeometry x="20" y="470" width="280" height="110" as="geometry"/>
                </mxCell>
                <mxCell id="123" style="edgeStyle=orthogonalEdgeStyle;rounded=0;orthogonalLoop=1;jettySize=auto;html=1;entryX=-0.002;entryY=0.588;entryDx=0;entryDy=0;endArrow=ERmany;endFill=0;startArrow=ERone;startFill=0;exitX=1.001;exitY=0.347;exitDx=0;exitDy=0;entryPerimeter=0;exitPerimeter=0;fontSize=16;verticalAlign=middle;" parent="1" edge="1">
                    <mxGeometry relative="1" as="geometry">
                        <mxPoint x="820" y="900" as="sourcePoint"/>
                        <mxPoint x="880" y="932" as="targetPoint"/>
                    </mxGeometry>
                </mxCell>
                <mxCell id="124" style="edgeStyle=orthogonalEdgeStyle;rounded=0;orthogonalLoop=1;jettySize=auto;html=1;entryX=1;entryY=0.575;entryDx=0;entryDy=0;endArrow=ERmany;endFill=0;startArrow=ERone;startFill=0;exitX=0;exitY=0.5;exitDx=0;exitDy=0;entryPerimeter=0;fontSize=16;verticalAlign=middle;" parent="1" source="40" target="58" edge="1">
                    <mxGeometry relative="1" as="geometry">
                        <mxPoint x="1950" y="848" as="sourcePoint"/>
                        <mxPoint x="2010" y="880" as="targetPoint"/>
                    </mxGeometry>
                </mxCell>
                <mxCell id="125" style="edgeStyle=orthogonalEdgeStyle;rounded=0;orthogonalLoop=1;jettySize=auto;html=1;entryX=0.993;entryY=0.706;entryDx=0;entryDy=0;endArrow=ERmany;endFill=0;startArrow=ERone;startFill=0;exitX=0.008;exitY=0.436;exitDx=0;exitDy=0;entryPerimeter=0;exitPerimeter=0;fontSize=16;verticalAlign=middle;" parent="1" source="40" target="66" edge="1">
                    <mxGeometry relative="1" as="geometry">
                        <mxPoint x="1870" y="800" as="sourcePoint"/>
                        <mxPoint x="1930" y="832" as="targetPoint"/>
                    </mxGeometry>
                </mxCell>
                <mxCell id="126" style="edgeStyle=orthogonalEdgeStyle;rounded=0;orthogonalLoop=1;jettySize=auto;html=1;entryX=-0.002;entryY=0.588;entryDx=0;entryDy=0;endArrow=ERmany;endFill=0;startArrow=ERone;startFill=0;exitX=1.001;exitY=0.347;exitDx=0;exitDy=0;entryPerimeter=0;exitPerimeter=0;fontSize=16;verticalAlign=middle;" parent="1" edge="1">
                    <mxGeometry relative="1" as="geometry">
                        <mxPoint x="2650.52" y="1430" as="sourcePoint"/>
                        <mxPoint x="2710.52" y="1462" as="targetPoint"/>
                    </mxGeometry>
                </mxCell>
                <mxCell id="127" style="edgeStyle=orthogonalEdgeStyle;rounded=0;orthogonalLoop=1;jettySize=auto;html=1;entryX=0.002;entryY=0.59;entryDx=0;entryDy=0;endArrow=ERmany;endFill=0;startArrow=ERone;startFill=0;exitX=0.999;exitY=0.59;exitDx=0;exitDy=0;entryPerimeter=0;exitPerimeter=0;fontSize=16;verticalAlign=middle;" parent="1" source="87" target="78" edge="1">
                    <mxGeometry relative="1" as="geometry">
                        <mxPoint x="1500" y="2248" as="sourcePoint"/>
                        <mxPoint x="1560" y="2280" as="targetPoint"/>
                    </mxGeometry>
                </mxCell>
                <mxCell id="128" style="edgeStyle=orthogonalEdgeStyle;rounded=0;orthogonalLoop=1;jettySize=auto;html=1;entryX=-0.002;entryY=0.588;entryDx=0;entryDy=0;endArrow=ERmany;endFill=0;startArrow=ERone;startFill=0;exitX=1.001;exitY=0.347;exitDx=0;exitDy=0;entryPerimeter=0;exitPerimeter=0;fontSize=16;verticalAlign=middle;" parent="1" edge="1">
                    <mxGeometry relative="1" as="geometry">
                        <mxPoint x="2440" y="1400" as="sourcePoint"/>
                        <mxPoint x="2500" y="1432" as="targetPoint"/>
                    </mxGeometry>
                </mxCell>
                <mxCell id="129" style="edgeStyle=orthogonalEdgeStyle;rounded=0;orthogonalLoop=1;jettySize=auto;html=1;entryX=-0.002;entryY=0.588;entryDx=0;entryDy=0;endArrow=ERmany;endFill=0;startArrow=ERone;startFill=0;exitX=1.001;exitY=0.347;exitDx=0;exitDy=0;entryPerimeter=0;exitPerimeter=0;fontSize=16;verticalAlign=middle;" parent="1" edge="1">
                    <mxGeometry relative="1" as="geometry">
                        <mxPoint x="830" y="1140" as="sourcePoint"/>
                        <mxPoint x="890" y="1172" as="targetPoint"/>
                    </mxGeometry>
                </mxCell>
                <mxCell id="130" style="edgeStyle=orthogonalEdgeStyle;rounded=0;orthogonalLoop=1;jettySize=auto;html=1;entryX=-0.002;entryY=0.588;entryDx=0;entryDy=0;endArrow=ERmany;endFill=0;startArrow=ERone;startFill=0;exitX=1.001;exitY=0.347;exitDx=0;exitDy=0;entryPerimeter=0;exitPerimeter=0;fontSize=16;verticalAlign=middle;" parent="1" edge="1">
                    <mxGeometry relative="1" as="geometry">
                        <mxPoint x="2800.52" y="1480" as="sourcePoint"/>
                        <mxPoint x="2860.52" y="1512" as="targetPoint"/>
                    </mxGeometry>
                </mxCell>
                <mxCell id="131" style="edgeStyle=orthogonalEdgeStyle;rounded=0;orthogonalLoop=1;jettySize=auto;html=1;entryX=-0.002;entryY=0.588;entryDx=0;entryDy=0;endArrow=ERmany;endFill=0;startArrow=ERone;startFill=0;exitX=1.001;exitY=0.347;exitDx=0;exitDy=0;entryPerimeter=0;exitPerimeter=0;fontSize=16;verticalAlign=middle;" parent="1" edge="1">
                    <mxGeometry relative="1" as="geometry">
                        <mxPoint x="2520" y="1380" as="sourcePoint"/>
                        <mxPoint x="2580" y="1412" as="targetPoint"/>
                    </mxGeometry>
                </mxCell>
                <mxCell id="132" style="edgeStyle=orthogonalEdgeStyle;rounded=0;orthogonalLoop=1;jettySize=auto;html=1;entryX=-0.002;entryY=0.588;entryDx=0;entryDy=0;endArrow=ERmany;endFill=0;startArrow=ERone;startFill=0;exitX=1.001;exitY=0.347;exitDx=0;exitDy=0;entryPerimeter=0;exitPerimeter=0;fontSize=16;verticalAlign=middle;" parent="1" edge="1">
                    <mxGeometry relative="1" as="geometry">
                        <mxPoint x="2610" y="1460" as="sourcePoint"/>
                        <mxPoint x="2670" y="1492" as="targetPoint"/>
                    </mxGeometry>
                </mxCell>
                <mxCell id="133" style="edgeStyle=orthogonalEdgeStyle;rounded=0;orthogonalLoop=1;jettySize=auto;html=1;entryX=0.029;entryY=0.385;entryDx=0;entryDy=0;endArrow=ERmany;endFill=0;startArrow=ERone;startFill=0;entryPerimeter=0;fontSize=16;verticalAlign=middle;exitX=0.997;exitY=0.385;exitDx=0;exitDy=0;exitPerimeter=0;" parent="1" source="87" target="65" edge="1">
                    <mxGeometry relative="1" as="geometry">
                        <mxPoint x="1390" y="890" as="sourcePoint"/>
                        <mxPoint x="1460" y="812" as="targetPoint"/>
                        <Array as="points">
                            <mxPoint x="1420" y="2084"/>
                            <mxPoint x="1420" y="1840"/>
                        </Array>
                    </mxGeometry>
                </mxCell>
                <mxCell id="134" style="edgeStyle=orthogonalEdgeStyle;rounded=0;orthogonalLoop=1;jettySize=auto;html=1;entryX=0;entryY=0.385;entryDx=0;entryDy=0;endArrow=ERmany;endFill=0;startArrow=ERone;startFill=0;exitX=0.993;exitY=0.475;exitDx=0;exitDy=0;entryPerimeter=0;exitPerimeter=0;fontSize=16;verticalAlign=middle;" parent="1" source="12" target="57" edge="1">
                    <mxGeometry relative="1" as="geometry">
                        <mxPoint x="1340" y="800" as="sourcePoint"/>
                        <mxPoint x="1400" y="832" as="targetPoint"/>
                    </mxGeometry>
                </mxCell>
                <mxCell id="135" style="edgeStyle=orthogonalEdgeStyle;rounded=0;orthogonalLoop=1;jettySize=auto;html=1;entryX=-0.002;entryY=0.588;entryDx=0;entryDy=0;endArrow=ERmany;endFill=0;startArrow=ERone;startFill=0;exitX=1.001;exitY=0.347;exitDx=0;exitDy=0;entryPerimeter=0;exitPerimeter=0;fontSize=16;verticalAlign=middle;" parent="1" edge="1">
                    <mxGeometry relative="1" as="geometry">
                        <mxPoint x="2740.52" y="1380" as="sourcePoint"/>
                        <mxPoint x="2800.52" y="1412" as="targetPoint"/>
                    </mxGeometry>
                </mxCell>
                <mxCell id="136" value="" style="swimlane;startSize=0;" parent="1" vertex="1">
                    <mxGeometry x="2360" y="950" width="460" height="350" as="geometry">
                        <mxRectangle x="780" y="540" width="50" height="40" as="alternateBounds"/>
                    </mxGeometry>
                </mxCell>
                <mxCell id="137" value="Audit LogðŸ©¹ðŸŒ€" style="swimlane;fontStyle=2;align=center;verticalAlign=middle;childLayout=stackLayout;horizontal=1;startSize=26;horizontalStack=0;resizeParent=1;resizeLast=0;collapsible=1;marginBottom=0;rounded=0;shadow=0;strokeWidth=1;fontSize=16;" parent="136" vertex="1">
                    <mxGeometry x="20" y="60" width="420" height="260" as="geometry">
                        <mxRectangle x="20" y="60" width="160" height="26" as="alternateBounds"/>
                    </mxGeometry>
                </mxCell>
                <mxCell id="138" value="" style="line;html=1;strokeWidth=1;align=left;verticalAlign=middle;spacingTop=-1;spacingLeft=3;spacingRight=3;rotatable=0;labelPosition=right;points=[];portConstraint=eastwest;fontSize=16;" parent="137" vertex="1">
                    <mxGeometry y="26" width="420" height="8" as="geometry"/>
                </mxCell>
                <mxCell id="139" value="- audit_log_id" style="text;align=left;verticalAlign=middle;spacingLeft=4;spacingRight=4;overflow=hidden;rotatable=0;points=[[0,0.5],[1,0.5]];portConstraint=eastwest;fontSize=16;" parent="137" vertex="1">
                    <mxGeometry y="34" width="420" height="26" as="geometry"/>
                </mxCell>
                <mxCell id="140" value="- userId ðŸ”–Â FKÂ " style="text;align=left;verticalAlign=middle;spacingLeft=4;spacingRight=4;overflow=hidden;rotatable=0;points=[[0,0.5],[1,0.5]];portConstraint=eastwest;fontSize=16;fillColor=#e1d5e7;strokeColor=#9673a6;" parent="137" vertex="1">
                    <mxGeometry y="60" width="420" height="26" as="geometry"/>
                </mxCell>
                <mxCell id="141" value="- role [ admin / manager / user / customer ]" style="text;align=left;verticalAlign=middle;spacingLeft=4;spacingRight=4;overflow=hidden;rotatable=0;points=[[0,0.5],[1,0.5]];portConstraint=eastwest;fontSize=16;" parent="137" vertex="1">
                    <mxGeometry y="86" width="420" height="26" as="geometry"/>
                </mxCell>
                <mxCell id="142" value="- action_performed âš¡Â string" style="text;align=left;verticalAlign=middle;spacingLeft=4;spacingRight=4;overflow=hidden;rotatable=0;points=[[0,0.5],[1,0.5]];portConstraint=eastwest;fontSize=16;" parent="137" vertex="1">
                    <mxGeometry y="112" width="420" height="26" as="geometry"/>
                </mxCell>
                <mxCell id="143" value="- statusâš¡ [Â  success / pending / active / failedÂ  ]" style="text;align=left;verticalAlign=middle;spacingLeft=4;spacingRight=4;overflow=hidden;rotatable=0;points=[[0,0.5],[1,0.5]];portConstraint=eastwest;fontSize=16;" parent="137" vertex="1">
                    <mxGeometry y="138" width="420" height="26" as="geometry"/>
                </mxCell>
                <mxCell id="144" value="- timestamp ðŸ“…Â " style="text;align=left;verticalAlign=middle;spacingLeft=4;spacingRight=4;overflow=hidden;rotatable=0;points=[[0,0.5],[1,0.5]];portConstraint=eastwest;fontSize=16;" parent="137" vertex="1">
                    <mxGeometry y="164" width="420" height="26" as="geometry"/>
                </mxCell>
                <mxCell id="145" value="- isDeletedÂ âš¡Â booleanÂ " style="text;align=left;verticalAlign=middle;spacingLeft=4;spacingRight=4;overflow=hidden;rotatable=0;points=[[0,0.5],[1,0.5]];portConstraint=eastwest;fontSize=16;" parent="137" vertex="1">
                    <mxGeometry y="190" width="420" height="26" as="geometry"/>
                </mxCell>
                <mxCell id="146" value="- tenant_id âš¡ UUIDÂ " style="text;align=left;verticalAlign=middle;spacingLeft=4;spacingRight=4;overflow=hidden;rotatable=0;points=[[0,0.5],[1,0.5]];portConstraint=eastwest;fontSize=16;" parent="137" vertex="1">
                    <mxGeometry y="216" width="420" height="26" as="geometry"/>
                </mxCell>
                <mxCell id="147" value="Audit Log" style="text;html=1;align=center;verticalAlign=middle;resizable=0;points=[];autosize=1;strokeColor=none;fillColor=none;fontSize=35;" parent="136" vertex="1">
                    <mxGeometry x="10" width="170" height="60" as="geometry"/>
                </mxCell>
                <mxCell id="148" value="ConversationðŸŸ¡" style="swimlane;fontStyle=2;align=center;verticalAlign=top;childLayout=stackLayout;horizontal=1;startSize=26;horizontalStack=0;resizeParent=1;resizeLast=0;collapsible=1;marginBottom=0;rounded=0;shadow=0;strokeWidth=1;" parent="1" vertex="1">
                    <mxGeometry x="1400" y="230" width="190" height="372" as="geometry">
                        <mxRectangle x="230" y="140" width="160" height="26" as="alternateBounds"/>
                    </mxGeometry>
                </mxCell>
                <mxCell id="149" value="" style="line;html=1;strokeWidth=1;align=left;verticalAlign=middle;spacingTop=-1;spacingLeft=3;spacingRight=3;rotatable=0;labelPosition=right;points=[];portConstraint=eastwest;" parent="148" vertex="1">
                    <mxGeometry y="26" width="190" height="8" as="geometry"/>
                </mxCell>
                <mxCell id="150" value="- conversation_Id" style="text;align=left;verticalAlign=top;spacingLeft=4;spacingRight=4;overflow=hidden;rotatable=0;points=[[0,0.5],[1,0.5]];portConstraint=eastwest;" parent="148" vertex="1">
                    <mxGeometry y="34" width="190" height="26" as="geometry"/>
                </mxCell>
                <mxCell id="151" value="- creatorIdÂ ðŸ”–Â FK" style="text;align=left;verticalAlign=top;spacingLeft=4;spacingRight=4;overflow=hidden;rotatable=0;points=[[0,0.5],[1,0.5]];portConstraint=eastwest;fillColor=#e1d5e7;strokeColor=#9673a6;" parent="148" vertex="1">
                    <mxGeometry y="60" width="190" height="26" as="geometry"/>
                </mxCell>
                <mxCell id="152" value="- isDeletedÂ Â âš¡Â boolean" style="text;align=left;verticalAlign=top;spacingLeft=4;spacingRight=4;overflow=hidden;rotatable=0;points=[[0,0.5],[1,0.5]];portConstraint=eastwest;" parent="148" vertex="1">
                    <mxGeometry y="86" width="190" height="26" as="geometry"/>
                </mxCell>
                <mxCell id="153" value="- lastMessage_IdÂ  ðŸ”– FK" style="text;align=left;verticalAlign=top;spacingLeft=4;spacingRight=4;overflow=hidden;rotatable=0;points=[[0,0.5],[1,0.5]];portConstraint=eastwest;" parent="148" vertex="1">
                    <mxGeometry y="112" width="190" height="26" as="geometry"/>
                </mxCell>
                <mxCell id="154" value="- lastMessage âš¡ stringÂ " style="text;align=left;verticalAlign=top;spacingLeft=4;spacingRight=4;overflow=hidden;rotatable=0;points=[[0,0.5],[1,0.5]];portConstraint=eastwest;" parent="148" vertex="1">
                    <mxGeometry y="138" width="190" height="26" as="geometry"/>
                </mxCell>
                <mxCell id="155" value="- title âš¡Â string" style="text;align=left;verticalAlign=top;spacingLeft=4;spacingRight=4;overflow=hidden;rotatable=0;points=[[0,0.5],[1,0.5]];portConstraint=eastwest;fillColor=#f5f5f5;fontColor=#333333;strokeColor=#666666;" parent="148" vertex="1">
                    <mxGeometry y="164" width="190" height="26" as="geometry"/>
                </mxCell>
                <mxCell id="156" value="- type [direct / group] ðŸš—" style="text;align=left;verticalAlign=top;spacingLeft=4;spacingRight=4;overflow=hidden;rotatable=0;points=[[0,0.5],[1,0.5]];portConstraint=eastwest;" parent="148" vertex="1">
                    <mxGeometry y="190" width="190" height="26" as="geometry"/>
                </mxCell>
                <mxCell id="157" value="- messagePermissionâš¡Â boolean" style="text;align=left;verticalAlign=top;spacingLeft=4;spacingRight=4;overflow=hidden;rotatable=0;points=[[0,0.5],[1,0.5]];portConstraint=eastwest;fillColor=#f5f5f5;fontColor=#333333;strokeColor=#666666;" parent="148" vertex="1">
                    <mxGeometry y="216" width="190" height="26" as="geometry"/>
                </mxCell>
                <mxCell id="158" value="- groupNameâš¡string" style="text;align=left;verticalAlign=top;spacingLeft=4;spacingRight=4;overflow=hidden;rotatable=0;points=[[0,0.5],[1,0.5]];portConstraint=eastwest;fillColor=#f5f5f5;fontColor=#333333;strokeColor=#666666;" parent="148" vertex="1">
                    <mxGeometry y="242" width="190" height="26" as="geometry"/>
                </mxCell>
                <mxCell id="159" value="- groupProfilePictureâš¡string" style="text;align=left;verticalAlign=top;spacingLeft=4;spacingRight=4;overflow=hidden;rotatable=0;points=[[0,0.5],[1,0.5]];portConstraint=eastwest;fillColor=#f5f5f5;fontColor=#333333;strokeColor=#666666;" parent="148" vertex="1">
                    <mxGeometry y="268" width="190" height="26" as="geometry"/>
                </mxCell>
                <mxCell id="160" value="- groupAdminsâš¡string ðŸŸ¢issue" style="text;align=left;verticalAlign=top;spacingLeft=4;spacingRight=4;overflow=hidden;rotatable=0;points=[[0,0.5],[1,0.5]];portConstraint=eastwest;fillColor=#f5f5f5;fontColor=#333333;strokeColor=#666666;" parent="148" vertex="1">
                    <mxGeometry y="294" width="190" height="26" as="geometry"/>
                </mxCell>
                <mxCell id="161" value="- blockedUsersâš¡string ðŸŸ¢issue" style="text;align=left;verticalAlign=top;spacingLeft=4;spacingRight=4;overflow=hidden;rotatable=0;points=[[0,0.5],[1,0.5]];portConstraint=eastwest;fillColor=#f5f5f5;fontColor=#333333;strokeColor=#666666;" parent="148" vertex="1">
                    <mxGeometry y="320" width="190" height="26" as="geometry"/>
                </mxCell>
                <mxCell id="162" value="- deletedForâš¡string ðŸŸ¢issue" style="text;align=left;verticalAlign=top;spacingLeft=4;spacingRight=4;overflow=hidden;rotatable=0;points=[[0,0.5],[1,0.5]];portConstraint=eastwest;fillColor=#f5f5f5;fontColor=#333333;strokeColor=#666666;" parent="148" vertex="1">
                    <mxGeometry y="346" width="190" height="26" as="geometry"/>
                </mxCell>
                <mxCell id="163" style="edgeStyle=orthogonalEdgeStyle;rounded=0;orthogonalLoop=1;jettySize=auto;html=1;entryX=1.013;entryY=0.681;entryDx=0;entryDy=0;endArrow=ERmany;endFill=0;startArrow=ERone;startFill=0;exitX=-0.002;exitY=0.689;exitDx=0;exitDy=0;entryPerimeter=0;exitPerimeter=0;" parent="1" source="150" target="189" edge="1">
                    <mxGeometry relative="1" as="geometry">
                        <mxPoint x="1158" y="559" as="sourcePoint"/>
                        <mxPoint x="1130" y="438" as="targetPoint"/>
                        <Array as="points">
                            <mxPoint x="1400" y="272"/>
                            <mxPoint x="1340" y="272"/>
                            <mxPoint x="1340" y="630"/>
                            <mxPoint x="1413" y="630"/>
                            <mxPoint x="1413" y="793"/>
                            <mxPoint x="1413" y="793"/>
                        </Array>
                    </mxGeometry>
                </mxCell>
                <mxCell id="164" value="Conversation ParticipantðŸŸ¡" style="swimlane;fontStyle=2;align=center;verticalAlign=top;childLayout=stackLayout;horizontal=1;startSize=26;horizontalStack=0;resizeParent=1;resizeLast=0;collapsible=1;marginBottom=0;rounded=0;shadow=0;strokeWidth=1;" parent="1" vertex="1">
                    <mxGeometry x="960" y="390" width="260" height="216" as="geometry">
                        <mxRectangle x="230" y="140" width="160" height="26" as="alternateBounds"/>
                    </mxGeometry>
                </mxCell>
                <mxCell id="165" value="" style="line;html=1;strokeWidth=1;align=left;verticalAlign=middle;spacingTop=-1;spacingLeft=3;spacingRight=3;rotatable=0;labelPosition=right;points=[];portConstraint=eastwest;" parent="164" vertex="1">
                    <mxGeometry y="26" width="260" height="8" as="geometry"/>
                </mxCell>
                <mxCell id="166" value="- conversationParticipant_Id" style="text;align=left;verticalAlign=top;spacingLeft=4;spacingRight=4;overflow=hidden;rotatable=0;points=[[0,0.5],[1,0.5]];portConstraint=eastwest;" parent="164" vertex="1">
                    <mxGeometry y="34" width="260" height="26" as="geometry"/>
                </mxCell>
                <mxCell id="167" value="- userIdÂ ðŸ”–Â FK" style="text;align=left;verticalAlign=top;spacingLeft=4;spacingRight=4;overflow=hidden;rotatable=0;points=[[0,0.5],[1,0.5]];portConstraint=eastwest;fillColor=#e1d5e7;strokeColor=#9673a6;" parent="164" vertex="1">
                    <mxGeometry y="60" width="260" height="26" as="geometry"/>
                </mxCell>
                <mxCell id="168" value="- joinedAt ðŸ“…" style="text;align=left;verticalAlign=top;spacingLeft=4;spacingRight=4;overflow=hidden;rotatable=0;points=[[0,0.5],[1,0.5]];portConstraint=eastwest;" parent="164" vertex="1">
                    <mxGeometry y="86" width="260" height="26" as="geometry"/>
                </mxCell>
                <mxCell id="169" value="- role [Â Â admin / manager / user / customerÂ ]" style="text;align=left;verticalAlign=top;spacingLeft=4;spacingRight=4;overflow=hidden;rotatable=0;points=[[0,0.5],[1,0.5]];portConstraint=eastwest;" parent="164" vertex="1">
                    <mxGeometry y="112" width="260" height="26" as="geometry"/>
                </mxCell>
                <mxCell id="170" value="- isDeletedÂ âš¡Â boolean" style="text;align=left;verticalAlign=top;spacingLeft=4;spacingRight=4;overflow=hidden;rotatable=0;points=[[0,0.5],[1,0.5]];portConstraint=eastwest;" parent="164" vertex="1">
                    <mxGeometry y="138" width="260" height="26" as="geometry"/>
                </mxCell>
                <mxCell id="171" value="- conversationIdÂ ðŸ”–Â FK" style="text;align=left;verticalAlign=top;spacingLeft=4;spacingRight=4;overflow=hidden;rotatable=0;points=[[0,0.5],[1,0.5]];portConstraint=eastwest;" parent="164" vertex="1">
                    <mxGeometry y="164" width="260" height="26" as="geometry"/>
                </mxCell>
                <mxCell id="172" value="- isApproved âš¡ boolean" style="text;align=left;verticalAlign=top;spacingLeft=4;spacingRight=4;overflow=hidden;rotatable=0;points=[[0,0.5],[1,0.5]];portConstraint=eastwest;fillColor=#f5f5f5;fontColor=#333333;strokeColor=#666666;" parent="164" vertex="1">
                    <mxGeometry y="190" width="260" height="26" as="geometry"/>
                </mxCell>
                <mxCell id="173" style="edgeStyle=orthogonalEdgeStyle;rounded=0;orthogonalLoop=1;jettySize=auto;html=1;entryX=1.011;entryY=0.328;entryDx=0;entryDy=0;endArrow=ERmany;endFill=0;startArrow=ERone;startFill=0;exitX=-0.011;exitY=0.306;exitDx=0;exitDy=0;entryPerimeter=0;exitPerimeter=0;" parent="1" source="150" target="171" edge="1">
                    <mxGeometry relative="1" as="geometry">
                        <mxPoint x="1424" y="558" as="sourcePoint"/>
                        <mxPoint x="1386" y="639" as="targetPoint"/>
                        <Array as="points">
                            <mxPoint x="1330" y="272"/>
                            <mxPoint x="1330" y="562"/>
                        </Array>
                    </mxGeometry>
                </mxCell>
                <mxCell id="174" value="" style="swimlane;startSize=0;" parent="1" vertex="1">
                    <mxGeometry x="930" y="220" width="680" height="638" as="geometry"/>
                </mxCell>
                <mxCell id="175" value="Conversation" style="text;html=1;align=center;verticalAlign=middle;resizable=0;points=[];autosize=1;strokeColor=none;fillColor=none;fontSize=35;" parent="174" vertex="1">
                    <mxGeometry x="20" y="10" width="230" height="60" as="geometry"/>
                </mxCell>
                <mxCell id="176" value="Message Read StatusðŸŸ¡" style="swimlane;fontStyle=2;align=center;verticalAlign=top;childLayout=stackLayout;horizontal=1;startSize=26;horizontalStack=0;resizeParent=1;resizeLast=0;collapsible=1;marginBottom=0;rounded=0;shadow=0;strokeWidth=1;" parent="174" vertex="1">
                    <mxGeometry x="20" y="448" width="200" height="164" as="geometry">
                        <mxRectangle x="230" y="140" width="160" height="26" as="alternateBounds"/>
                    </mxGeometry>
                </mxCell>
                <mxCell id="177" value="" style="line;html=1;strokeWidth=1;align=left;verticalAlign=middle;spacingTop=-1;spacingLeft=3;spacingRight=3;rotatable=0;labelPosition=right;points=[];portConstraint=eastwest;" parent="176" vertex="1">
                    <mxGeometry y="26" width="200" height="8" as="geometry"/>
                </mxCell>
                <mxCell id="178" value="- messageReadStatus_Id" style="text;align=left;verticalAlign=top;spacingLeft=4;spacingRight=4;overflow=hidden;rotatable=0;points=[[0,0.5],[1,0.5]];portConstraint=eastwest;" parent="176" vertex="1">
                    <mxGeometry y="34" width="200" height="26" as="geometry"/>
                </mxCell>
                <mxCell id="179" value="- messageIdÂ ðŸ”–Â FK" style="text;align=left;verticalAlign=top;spacingLeft=4;spacingRight=4;overflow=hidden;rotatable=0;points=[[0,0.5],[1,0.5]];portConstraint=eastwest;" parent="176" vertex="1">
                    <mxGeometry y="60" width="200" height="26" as="geometry"/>
                </mxCell>
                <mxCell id="180" value="- userIdÂ ðŸ”–Â FK" style="text;align=left;verticalAlign=top;spacingLeft=4;spacingRight=4;overflow=hidden;rotatable=0;points=[[0,0.5],[1,0.5]];portConstraint=eastwest;fillColor=#e1d5e7;strokeColor=#9673a6;" parent="176" vertex="1">
                    <mxGeometry y="86" width="200" height="26" as="geometry"/>
                </mxCell>
                <mxCell id="181" value="- conversationParticipantIdÂ ðŸ”–Â FK" style="text;align=left;verticalAlign=top;spacingLeft=4;spacingRight=4;overflow=hidden;rotatable=0;points=[[0,0.5],[1,0.5]];portConstraint=eastwest;" parent="176" vertex="1">
                    <mxGeometry y="112" width="200" height="26" as="geometry"/>
                </mxCell>
                <mxCell id="182" value="- isRead âš¡ boolean" style="text;align=left;verticalAlign=top;spacingLeft=4;spacingRight=4;overflow=hidden;rotatable=0;points=[[0,0.5],[1,0.5]];portConstraint=eastwest;" parent="176" vertex="1">
                    <mxGeometry y="138" width="200" height="26" as="geometry"/>
                </mxCell>
                <mxCell id="183" value="MessageðŸŸ¡" style="swimlane;fontStyle=2;align=center;verticalAlign=top;childLayout=stackLayout;horizontal=1;startSize=26;horizontalStack=0;resizeParent=1;resizeLast=0;collapsible=1;marginBottom=0;rounded=0;shadow=0;strokeWidth=1;" parent="174" vertex="1">
                    <mxGeometry x="230" y="422" width="250" height="216" as="geometry">
                        <mxRectangle x="230" y="140" width="160" height="26" as="alternateBounds"/>
                    </mxGeometry>
                </mxCell>
                <mxCell id="184" value="" style="line;html=1;strokeWidth=1;align=left;verticalAlign=middle;spacingTop=-1;spacingLeft=3;spacingRight=3;rotatable=0;labelPosition=right;points=[];portConstraint=eastwest;" parent="183" vertex="1">
                    <mxGeometry y="26" width="250" height="8" as="geometry"/>
                </mxCell>
                <mxCell id="185" value="- message_Id" style="text;align=left;verticalAlign=top;spacingLeft=4;spacingRight=4;overflow=hidden;rotatable=0;points=[[0,0.5],[1,0.5]];portConstraint=eastwest;" parent="183" vertex="1">
                    <mxGeometry y="34" width="250" height="26" as="geometry"/>
                </mxCell>
                <mxCell id="186" value="- text" style="text;align=left;verticalAlign=top;spacingLeft=4;spacingRight=4;overflow=hidden;rotatable=0;points=[[0,0.5],[1,0.5]];portConstraint=eastwest;" parent="183" vertex="1">
                    <mxGeometry y="60" width="250" height="26" as="geometry"/>
                </mxCell>
                <mxCell id="187" value="- attachments []" style="text;align=left;verticalAlign=top;spacingLeft=4;spacingRight=4;overflow=hidden;rotatable=0;points=[[0,0.5],[1,0.5]];portConstraint=eastwest;fillColor=#ffff88;strokeColor=#36393d;" parent="183" vertex="1">
                    <mxGeometry y="86" width="250" height="26" as="geometry"/>
                </mxCell>
                <mxCell id="188" value="- senderId" style="text;align=left;verticalAlign=top;spacingLeft=4;spacingRight=4;overflow=hidden;rotatable=0;points=[[0,0.5],[1,0.5]];portConstraint=eastwest;" parent="183" vertex="1">
                    <mxGeometry y="112" width="250" height="26" as="geometry"/>
                </mxCell>
                <mxCell id="189" value="- conversationIdÂ ðŸ”–Â FK" style="text;align=left;verticalAlign=top;spacingLeft=4;spacingRight=4;overflow=hidden;rotatable=0;points=[[0,0.5],[1,0.5]];portConstraint=eastwest;" parent="183" vertex="1">
                    <mxGeometry y="138" width="250" height="26" as="geometry"/>
                </mxCell>
                <mxCell id="190" value="- senderRole [ admin / manager / user / customerÂ ]" style="text;align=left;verticalAlign=top;spacingLeft=4;spacingRight=4;overflow=hidden;rotatable=0;points=[[0,0.5],[1,0.5]];portConstraint=eastwest;" parent="183" vertex="1">
                    <mxGeometry y="164" width="250" height="26" as="geometry"/>
                </mxCell>
                <mxCell id="191" value="- isDeleted âš¡ boolean" style="text;align=left;verticalAlign=top;spacingLeft=4;spacingRight=4;overflow=hidden;rotatable=0;points=[[0,0.5],[1,0.5]];portConstraint=eastwest;" parent="183" vertex="1">
                    <mxGeometry y="190" width="250" height="26" as="geometry"/>
                </mxCell>
                <mxCell id="192" style="edgeStyle=orthogonalEdgeStyle;rounded=0;orthogonalLoop=1;jettySize=auto;html=1;entryX=-0.009;entryY=0.562;entryDx=0;entryDy=0;endArrow=ERmany;endFill=0;startArrow=ERone;startFill=0;exitX=0.005;exitY=0.577;exitDx=0;exitDy=0;entryPerimeter=0;exitPerimeter=0;fontSize=16;verticalAlign=middle;strokeColor=light-dark(#f10909, #ededed);" parent="174" source="185" target="179" edge="1">
                    <mxGeometry relative="1" as="geometry">
                        <mxPoint x="-100" y="550" as="sourcePoint"/>
                        <mxPoint x="-40" y="582" as="targetPoint"/>
                        <Array as="points">
                            <mxPoint x="231" y="430"/>
                            <mxPoint x="10" y="430"/>
                            <mxPoint x="10" y="523"/>
                        </Array>
                    </mxGeometry>
                </mxCell>
                <mxCell id="193" value="" style="swimlane;startSize=0;" parent="1" vertex="1">
                    <mxGeometry x="550" y="980" width="430" height="123" as="geometry"/>
                </mxCell>
                <mxCell id="194" value="User Means Employee&lt;br&gt;Means Guards" style="text;html=1;align=center;verticalAlign=middle;resizable=0;points=[];autosize=1;strokeColor=none;fillColor=none;fontSize=35;" parent="193" vertex="1">
                    <mxGeometry x="20" y="9" width="380" height="100" as="geometry"/>
                </mxCell>
                <mxCell id="195" value="dsdsd" style="swimlane;fontStyle=2;align=center;verticalAlign=middle;childLayout=stackLayout;horizontal=1;startSize=26;horizontalStack=0;resizeParent=1;resizeLast=0;collapsible=1;marginBottom=0;rounded=0;shadow=0;strokeWidth=1;fontSize=16;" parent="1" vertex="1">
                    <mxGeometry x="770" y="1260" width="220" height="160" as="geometry">
                        <mxRectangle x="20" y="60" width="160" height="26" as="alternateBounds"/>
                    </mxGeometry>
                </mxCell>
                <mxCell id="196" value="" style="line;html=1;strokeWidth=1;align=left;verticalAlign=middle;spacingTop=-1;spacingLeft=3;spacingRight=3;rotatable=0;labelPosition=right;points=[];portConstraint=eastwest;fontSize=16;" parent="195" vertex="1">
                    <mxGeometry y="26" width="220" height="8" as="geometry"/>
                </mxCell>
                <mxCell id="197" value="- user_customer_relation_id" style="text;align=left;verticalAlign=middle;spacingLeft=4;spacingRight=4;overflow=hidden;rotatable=0;points=[[0,0.5],[1,0.5]];portConstraint=eastwest;fontSize=16;" parent="195" vertex="1">
                    <mxGeometry y="34" width="220" height="26" as="geometry"/>
                </mxCell>
                <mxCell id="198" value="- user ðŸ”–Â FK" style="text;align=left;verticalAlign=middle;spacingLeft=4;spacingRight=4;overflow=hidden;rotatable=0;points=[[0,0.5],[1,0.5]];portConstraint=eastwest;fontSize=16;" parent="195" vertex="1">
                    <mxGeometry y="60" width="220" height="26" as="geometry"/>
                </mxCell>
                <mxCell id="199" value="- user ðŸ”–Â FK" style="text;align=left;verticalAlign=middle;spacingLeft=4;spacingRight=4;overflow=hidden;rotatable=0;points=[[0,0.5],[1,0.5]];portConstraint=eastwest;fontSize=16;" parent="195" vertex="1">
                    <mxGeometry y="86" width="220" height="26" as="geometry"/>
                </mxCell>
                <mxCell id="200" value="relatedEmployeeId&lt;div data--h-bstatus=&quot;0OBSERVED&quot;&gt;for&lt;/div&gt;&lt;div data--h-bstatus=&quot;0OBSERVED&quot;&gt;createCustomer&lt;br data--h-bstatus=&quot;0OBSERVED&quot;&gt;in&lt;br data--h-bstatus=&quot;0OBSERVED&quot;&gt;Admin End&lt;/div&gt;" style="shape=note;whiteSpace=wrap;html=1;backgroundOutline=1;darkOpacity=0.05;fillColor=#ffcc99;strokeColor=#36393d;" parent="1" vertex="1">
                    <mxGeometry x="880" y="1520" width="120" height="150" as="geometry"/>
                </mxCell>
                <mxCell id="201" value="is it okey to&amp;nbsp;&lt;div data--h-bstatus=&quot;0OBSERVED&quot;&gt;related&amp;nbsp;&lt;/div&gt;&lt;div data--h-bstatus=&quot;0OBSERVED&quot;&gt;manager and&amp;nbsp;&lt;/div&gt;&lt;div data--h-bstatus=&quot;0OBSERVED&quot;&gt;user&amp;nbsp;&lt;/div&gt;&lt;div data--h-bstatus=&quot;0OBSERVED&quot;&gt;like this&amp;nbsp;&lt;/div&gt;&lt;div data--h-bstatus=&quot;0OBSERVED&quot;&gt;with camera&lt;/div&gt;" style="shape=note;whiteSpace=wrap;html=1;backgroundOutline=1;darkOpacity=0.05;fillColor=#ffcc99;strokeColor=#36393d;" parent="1" vertex="1">
                    <mxGeometry x="880" y="2280" width="130" height="150" as="geometry"/>
                </mxCell>
                <mxCell id="202" style="edgeStyle=orthogonalEdgeStyle;rounded=0;orthogonalLoop=1;jettySize=auto;html=1;entryX=-0.002;entryY=0.588;entryDx=0;entryDy=0;endArrow=ERmany;endFill=0;startArrow=ERone;startFill=0;exitX=1.001;exitY=0.347;exitDx=0;exitDy=0;entryPerimeter=0;exitPerimeter=0;fontSize=16;verticalAlign=middle;" parent="1" edge="1">
                    <mxGeometry relative="1" as="geometry">
                        <mxPoint x="760" y="2110" as="sourcePoint"/>
                        <mxPoint x="820" y="2142" as="targetPoint"/>
                    </mxGeometry>
                </mxCell>
                <mxCell id="203" style="edgeStyle=orthogonalEdgeStyle;rounded=0;orthogonalLoop=1;jettySize=auto;html=1;entryX=-0.002;entryY=0.588;entryDx=0;entryDy=0;endArrow=ERmany;endFill=0;startArrow=ERone;startFill=0;exitX=1.001;exitY=0.347;exitDx=0;exitDy=0;entryPerimeter=0;exitPerimeter=0;fontSize=16;verticalAlign=middle;" parent="1" edge="1">
                    <mxGeometry relative="1" as="geometry">
                        <mxPoint x="760" y="2170" as="sourcePoint"/>
                        <mxPoint x="820" y="2202" as="targetPoint"/>
                    </mxGeometry>
                </mxCell>
                <mxCell id="204" style="edgeStyle=orthogonalEdgeStyle;rounded=0;orthogonalLoop=1;jettySize=auto;html=1;entryX=-0.002;entryY=0.588;entryDx=0;entryDy=0;endArrow=ERmany;endFill=0;startArrow=ERone;startFill=0;exitX=1.001;exitY=0.347;exitDx=0;exitDy=0;entryPerimeter=0;exitPerimeter=0;fontSize=16;verticalAlign=middle;" parent="1" edge="1">
                    <mxGeometry relative="1" as="geometry">
                        <mxPoint x="770" y="2250" as="sourcePoint"/>
                        <mxPoint x="830" y="2282" as="targetPoint"/>
                    </mxGeometry>
                </mxCell>
                <mxCell id="205" style="edgeStyle=orthogonalEdgeStyle;rounded=0;orthogonalLoop=1;jettySize=auto;html=1;entryX=-0.002;entryY=0.588;entryDx=0;entryDy=0;endArrow=ERmany;endFill=0;startArrow=ERone;startFill=0;exitX=1.001;exitY=0.347;exitDx=0;exitDy=0;entryPerimeter=0;exitPerimeter=0;fontSize=16;verticalAlign=middle;" parent="1" edge="1">
                    <mxGeometry relative="1" as="geometry">
                        <mxPoint x="760" y="2340" as="sourcePoint"/>
                        <mxPoint x="820" y="2372" as="targetPoint"/>
                    </mxGeometry>
                </mxCell>
                <mxCell id="206" style="edgeStyle=orthogonalEdgeStyle;rounded=0;orthogonalLoop=1;jettySize=auto;html=1;entryX=-0.002;entryY=0.588;entryDx=0;entryDy=0;endArrow=ERmany;endFill=0;startArrow=ERone;startFill=0;exitX=1.001;exitY=0.347;exitDx=0;exitDy=0;entryPerimeter=0;exitPerimeter=0;fontSize=16;verticalAlign=middle;" parent="1" edge="1">
                    <mxGeometry relative="1" as="geometry">
                        <mxPoint x="760" y="2430" as="sourcePoint"/>
                        <mxPoint x="820" y="2462" as="targetPoint"/>
                    </mxGeometry>
                </mxCell>
                <mxCell id="207" style="edgeStyle=orthogonalEdgeStyle;rounded=0;orthogonalLoop=1;jettySize=auto;html=1;entryX=-0.002;entryY=0.588;entryDx=0;entryDy=0;endArrow=ERmany;endFill=0;startArrow=ERone;startFill=0;exitX=1.001;exitY=0.347;exitDx=0;exitDy=0;entryPerimeter=0;exitPerimeter=0;fontSize=16;verticalAlign=middle;" parent="1" edge="1">
                    <mxGeometry relative="1" as="geometry">
                        <mxPoint x="1930" y="2168" as="sourcePoint"/>
                        <mxPoint x="1990" y="2200" as="targetPoint"/>
                    </mxGeometry>
                </mxCell>
                <mxCell id="208" style="edgeStyle=orthogonalEdgeStyle;rounded=0;orthogonalLoop=1;jettySize=auto;html=1;entryX=-0.002;entryY=0.588;entryDx=0;entryDy=0;endArrow=ERmany;endFill=0;startArrow=ERone;startFill=0;exitX=1.001;exitY=0.347;exitDx=0;exitDy=0;entryPerimeter=0;exitPerimeter=0;fontSize=16;verticalAlign=middle;" parent="1" edge="1">
                    <mxGeometry relative="1" as="geometry">
                        <mxPoint x="2010" y="2168" as="sourcePoint"/>
                        <mxPoint x="2070" y="2200" as="targetPoint"/>
                    </mxGeometry>
                </mxCell>
                <mxCell id="209" style="edgeStyle=orthogonalEdgeStyle;rounded=0;orthogonalLoop=1;jettySize=auto;html=1;entryX=0.994;entryY=0.566;entryDx=0;entryDy=0;endArrow=ERmany;endFill=0;startArrow=ERone;startFill=0;exitX=0.003;exitY=0.549;exitDx=0;exitDy=0;entryPerimeter=0;exitPerimeter=0;fontSize=16;verticalAlign=middle;" parent="1" source="107" target="71" edge="1">
                    <mxGeometry relative="1" as="geometry">
                        <mxPoint x="1910" y="1490" as="sourcePoint"/>
                        <mxPoint x="1970" y="1522" as="targetPoint"/>
                    </mxGeometry>
                </mxCell>
                <mxCell id="210" style="edgeStyle=orthogonalEdgeStyle;rounded=0;orthogonalLoop=1;jettySize=auto;html=1;endArrow=ERmany;endFill=0;startArrow=ERone;startFill=0;exitX=1.006;exitY=0.632;exitDx=0;exitDy=0;exitPerimeter=0;fontSize=16;verticalAlign=middle;" parent="1" source="12" target="70" edge="1">
                    <mxGeometry relative="1" as="geometry">
                        <mxPoint x="1500" y="1710" as="sourcePoint"/>
                        <mxPoint x="1560" y="1742" as="targetPoint"/>
                    </mxGeometry>
                </mxCell>
                <mxCell id="211" value="" style="swimlane;startSize=0;" parent="1" vertex="1">
                    <mxGeometry x="1910" y="2210" width="960" height="460" as="geometry">
                        <mxRectangle x="780" y="540" width="50" height="40" as="alternateBounds"/>
                    </mxGeometry>
                </mxCell>
                <mxCell id="212" value="settings" style="swimlane;fontStyle=2;align=center;verticalAlign=middle;childLayout=stackLayout;horizontal=1;startSize=26;horizontalStack=0;resizeParent=1;resizeLast=0;collapsible=1;marginBottom=0;rounded=0;shadow=0;strokeWidth=1;fontSize=16;" parent="211" vertex="1">
                    <mxGeometry x="20" y="60" width="540" height="130" as="geometry">
                        <mxRectangle x="20" y="60" width="160" height="26" as="alternateBounds"/>
                    </mxGeometry>
                </mxCell>
                <mxCell id="213" value="" style="line;html=1;strokeWidth=1;align=left;verticalAlign=middle;spacingTop=-1;spacingLeft=3;spacingRight=3;rotatable=0;labelPosition=right;points=[];portConstraint=eastwest;fontSize=16;" parent="212" vertex="1">
                    <mxGeometry y="26" width="540" height="8" as="geometry"/>
                </mxCell>
                <mxCell id="214" value="- settings_id" style="text;align=left;verticalAlign=middle;spacingLeft=4;spacingRight=4;overflow=hidden;rotatable=0;points=[[0,0.5],[1,0.5]];portConstraint=eastwest;fontSize=16;" parent="212" vertex="1">
                    <mxGeometry y="34" width="540" height="26" as="geometry"/>
                </mxCell>
                <mxCell id="215" value="-Â typeâš¡ [Â Â aboutUs / contactUs / privacyPolicy /Â Â termsAndConditionsÂ  ]" style="text;align=left;verticalAlign=middle;spacingLeft=4;spacingRight=4;overflow=hidden;rotatable=0;points=[[0,0.5],[1,0.5]];portConstraint=eastwest;fontSize=16;" parent="212" vertex="1">
                    <mxGeometry y="60" width="540" height="26" as="geometry"/>
                </mxCell>
                <mxCell id="216" value="-Â detailsâš¡Â  string" style="text;align=left;verticalAlign=middle;spacingLeft=4;spacingRight=4;overflow=hidden;rotatable=0;points=[[0,0.5],[1,0.5]];portConstraint=eastwest;fontSize=16;" parent="212" vertex="1">
                    <mxGeometry y="86" width="540" height="26" as="geometry"/>
                </mxCell>
                <mxCell id="217" value="Settings" style="text;html=1;align=center;verticalAlign=middle;resizable=0;points=[];autosize=1;strokeColor=none;fillColor=none;fontSize=35;" parent="211" vertex="1">
                    <mxGeometry x="5" width="150" height="60" as="geometry"/>
                </mxCell>
                <mxCell id="218" value="review" style="swimlane;fontStyle=2;align=center;verticalAlign=middle;childLayout=stackLayout;horizontal=1;startSize=26;horizontalStack=0;resizeParent=1;resizeLast=0;collapsible=1;marginBottom=0;rounded=0;shadow=0;strokeWidth=1;fontSize=16;" parent="211" vertex="1">
                    <mxGeometry x="590" y="30" width="180" height="160" as="geometry">
                        <mxRectangle x="20" y="60" width="160" height="26" as="alternateBounds"/>
                    </mxGeometry>
                </mxCell>
                <mxCell id="219" value="" style="line;html=1;strokeWidth=1;align=left;verticalAlign=middle;spacingTop=-1;spacingLeft=3;spacingRight=3;rotatable=0;labelPosition=right;points=[];portConstraint=eastwest;fontSize=16;" parent="218" vertex="1">
                    <mxGeometry y="26" width="180" height="8" as="geometry"/>
                </mxCell>
                <mxCell id="220" value="- review_id" style="text;align=left;verticalAlign=middle;spacingLeft=4;spacingRight=4;overflow=hidden;rotatable=0;points=[[0,0.5],[1,0.5]];portConstraint=eastwest;fontSize=16;" parent="218" vertex="1">
                    <mxGeometry y="34" width="180" height="26" as="geometry"/>
                </mxCell>
                <mxCell id="221" value="-Â ratingâš¡ number" style="text;align=left;verticalAlign=middle;spacingLeft=4;spacingRight=4;overflow=hidden;rotatable=0;points=[[0,0.5],[1,0.5]];portConstraint=eastwest;fontSize=16;" parent="218" vertex="1">
                    <mxGeometry y="60" width="180" height="26" as="geometry"/>
                </mxCell>
                <mxCell id="222" value="-Â commentâš¡ string" style="text;align=left;verticalAlign=middle;spacingLeft=4;spacingRight=4;overflow=hidden;rotatable=0;points=[[0,0.5],[1,0.5]];portConstraint=eastwest;fontSize=16;" parent="218" vertex="1">
                    <mxGeometry y="86" width="180" height="26" as="geometry"/>
                </mxCell>
                <mxCell id="223" value="- userId ðŸ”–Â FK" style="text;align=left;verticalAlign=middle;spacingLeft=4;spacingRight=4;overflow=hidden;rotatable=0;points=[[0,0.5],[1,0.5]];portConstraint=eastwest;fontSize=16;fillColor=#e1d5e7;strokeColor=#9673a6;" parent="218" vertex="1">
                    <mxGeometry y="112" width="180" height="26" as="geometry"/>
                </mxCell>
                <mxCell id="224" value="review er&amp;nbsp;&lt;div data--h-bstatus=&quot;0OBSERVED&quot;&gt;shathe&lt;/div&gt;&lt;div data--h-bstatus=&quot;0OBSERVED&quot;&gt;userId&lt;/div&gt;&lt;div data--h-bstatus=&quot;0OBSERVED&quot;&gt;er relation&lt;/div&gt;&lt;div data--h-bstatus=&quot;0OBSERVED&quot;&gt;thik&amp;nbsp;&lt;/div&gt;&lt;div data--h-bstatus=&quot;0OBSERVED&quot;&gt;ase&amp;nbsp;&lt;/div&gt;&lt;div data--h-bstatus=&quot;0OBSERVED&quot;&gt;kina&amp;nbsp;&lt;/div&gt;&lt;div data--h-bstatus=&quot;0OBSERVED&quot;&gt;check korte&amp;nbsp;&lt;/div&gt;&lt;div data--h-bstatus=&quot;0OBSERVED&quot;&gt;hobe&lt;/div&gt;" style="shape=note;whiteSpace=wrap;html=1;backgroundOutline=1;darkOpacity=0.05;fillColor=#ffcc99;strokeColor=#36393d;" parent="1" vertex="1">
                    <mxGeometry x="1820" y="2220" width="80" height="190" as="geometry"/>
                </mxCell>
                <mxCell id="225" value="" style="swimlane;startSize=0;" parent="1" vertex="1">
                    <mxGeometry x="3000" y="888.5" width="800" height="541.5" as="geometry"/>
                </mxCell>
                <mxCell id="226" value="Recycle Bin" style="text;html=1;align=center;verticalAlign=middle;resizable=0;points=[];autosize=1;strokeColor=none;fillColor=none;fontSize=35;" parent="225" vertex="1">
                    <mxGeometry x="60" y="17.5" width="210" height="60" as="geometry"/>
                </mxCell>
                <mxCell id="227" value="Manager Site Relation (Not Needed)" style="swimlane;fontStyle=2;align=center;verticalAlign=middle;childLayout=stackLayout;horizontal=1;startSize=26;horizontalStack=0;resizeParent=1;resizeLast=0;collapsible=1;marginBottom=0;rounded=0;shadow=0;strokeWidth=1;fontSize=16;fillColor=#e51400;fontColor=#ffffff;strokeColor=#B20000;" parent="225" vertex="1">
                    <mxGeometry x="70" y="111.5" width="350" height="160" as="geometry">
                        <mxRectangle x="20" y="60" width="160" height="26" as="alternateBounds"/>
                    </mxGeometry>
                </mxCell>
                <mxCell id="228" value="" style="line;html=1;strokeWidth=1;align=left;verticalAlign=middle;spacingTop=-1;spacingLeft=3;spacingRight=3;rotatable=0;labelPosition=right;points=[];portConstraint=eastwest;fontSize=16;" parent="227" vertex="1">
                    <mxGeometry y="26" width="350" height="8" as="geometry"/>
                </mxCell>
                <mxCell id="229" value="- manager_site_relation_id" style="text;align=left;verticalAlign=middle;spacingLeft=4;spacingRight=4;overflow=hidden;rotatable=0;points=[[0,0.5],[1,0.5]];portConstraint=eastwest;fontSize=16;" parent="227" vertex="1">
                    <mxGeometry y="34" width="350" height="26" as="geometry"/>
                </mxCell>
                <mxCell id="230" value="- manager_id ðŸ”–Â FK" style="text;align=left;verticalAlign=middle;spacingLeft=4;spacingRight=4;overflow=hidden;rotatable=0;points=[[0,0.5],[1,0.5]];portConstraint=eastwest;fontSize=16;fillColor=#e1d5e7;strokeColor=#9673a6;" parent="227" vertex="1">
                    <mxGeometry y="60" width="350" height="26" as="geometry"/>
                </mxCell>
                <mxCell id="231" value="- site_id ðŸ”–Â FK" style="text;align=left;verticalAlign=middle;spacingLeft=4;spacingRight=4;overflow=hidden;rotatable=0;points=[[0,0.5],[1,0.5]];portConstraint=eastwest;fontSize=16;" parent="227" vertex="1">
                    <mxGeometry y="86" width="350" height="26" as="geometry"/>
                </mxCell>
                <mxCell id="232" value="User Site Relation (Not Needed)" style="swimlane;fontStyle=2;align=center;verticalAlign=middle;childLayout=stackLayout;horizontal=1;startSize=26;horizontalStack=0;resizeParent=1;resizeLast=0;collapsible=1;marginBottom=0;rounded=0;shadow=0;strokeWidth=1;fontSize=16;fillColor=#e51400;fontColor=#ffffff;strokeColor=#B20000;" parent="225" vertex="1">
                    <mxGeometry x="70" y="301.5" width="350" height="160" as="geometry">
                        <mxRectangle x="20" y="60" width="160" height="26" as="alternateBounds"/>
                    </mxGeometry>
                </mxCell>
                <mxCell id="233" value="" style="line;html=1;strokeWidth=1;align=left;verticalAlign=middle;spacingTop=-1;spacingLeft=3;spacingRight=3;rotatable=0;labelPosition=right;points=[];portConstraint=eastwest;fontSize=16;" parent="232" vertex="1">
                    <mxGeometry y="26" width="350" height="8" as="geometry"/>
                </mxCell>
                <mxCell id="234" value="- user_site_relation_id" style="text;align=left;verticalAlign=middle;spacingLeft=4;spacingRight=4;overflow=hidden;rotatable=0;points=[[0,0.5],[1,0.5]];portConstraint=eastwest;fontSize=16;" parent="232" vertex="1">
                    <mxGeometry y="34" width="350" height="26" as="geometry"/>
                </mxCell>
                <mxCell id="235" value="- user_id ðŸ”–Â FK" style="text;align=left;verticalAlign=middle;spacingLeft=4;spacingRight=4;overflow=hidden;rotatable=0;points=[[0,0.5],[1,0.5]];portConstraint=eastwest;fontSize=16;fillColor=#e1d5e7;strokeColor=#9673a6;" parent="232" vertex="1">
                    <mxGeometry y="60" width="350" height="26" as="geometry"/>
                </mxCell>
                <mxCell id="236" value="- site_id ðŸ”–Â FK" style="text;align=left;verticalAlign=middle;spacingLeft=4;spacingRight=4;overflow=hidden;rotatable=0;points=[[0,0.5],[1,0.5]];portConstraint=eastwest;fontSize=16;" parent="232" vertex="1">
                    <mxGeometry y="86" width="350" height="26" as="geometry"/>
                </mxCell>
                <mxCell id="237" value="Assign Employee To that&amp;nbsp; Report" style="shape=card;whiteSpace=wrap;html=1;" parent="225" vertex="1">
                    <mxGeometry x="560" y="17.5" width="80" height="100" as="geometry"/>
                </mxCell>
                <mxCell id="238" value="report contains site Id" style="text;align=left;verticalAlign=middle;spacingLeft=4;spacingRight=4;overflow=hidden;rotatable=0;points=[[0,0.5],[1,0.5]];portConstraint=eastwest;fontSize=16;" parent="225" vertex="1">
                    <mxGeometry x="500" y="183.5" width="180" height="26" as="geometry"/>
                </mxCell>
                <mxCell id="239" value="Employee" style="swimlane;fontStyle=2;align=center;verticalAlign=middle;childLayout=stackLayout;horizontal=1;startSize=26;horizontalStack=0;resizeParent=1;resizeLast=0;collapsible=1;marginBottom=0;rounded=0;shadow=0;strokeWidth=1;fontSize=16;" parent="225" vertex="1">
                    <mxGeometry x="510" y="281.5" width="140" height="70" as="geometry">
                        <mxRectangle x="20" y="60" width="160" height="26" as="alternateBounds"/>
                    </mxGeometry>
                </mxCell>
                <mxCell id="240" value="" style="line;html=1;strokeWidth=1;align=left;verticalAlign=middle;spacingTop=-1;spacingLeft=3;spacingRight=3;rotatable=0;labelPosition=right;points=[];portConstraint=eastwest;fontSize=16;" parent="239" vertex="1">
                    <mxGeometry y="26" width="140" height="8" as="geometry"/>
                </mxCell>
                <mxCell id="241" value="- employeeId" style="text;align=left;verticalAlign=middle;spacingLeft=4;spacingRight=4;overflow=hidden;rotatable=0;points=[[0,0.5],[1,0.5]];portConstraint=eastwest;fontSize=16;" parent="239" vertex="1">
                    <mxGeometry y="34" width="140" height="26" as="geometry"/>
                </mxCell>
                <mxCell id="242" style="edgeStyle=orthogonalEdgeStyle;rounded=0;orthogonalLoop=1;jettySize=auto;html=1;entryX=0.005;entryY=0.667;entryDx=0;entryDy=0;endArrow=ERmany;endFill=0;startArrow=ERone;startFill=0;exitX=0.999;exitY=0.706;exitDx=0;exitDy=0;entryPerimeter=0;exitPerimeter=0;fontSize=16;verticalAlign=middle;" parent="1" source="12" target="79" edge="1">
                    <mxGeometry relative="1" as="geometry">
                        <mxPoint x="899.5" y="1210" as="sourcePoint"/>
                        <mxPoint x="959.5" y="1242" as="targetPoint"/>
                    </mxGeometry>
                </mxCell>
                <mxCell id="243" value="" style="swimlane;startSize=0;" parent="1" vertex="1">
                    <mxGeometry x="3090" y="1550" width="1320" height="620" as="geometry">
                        <mxRectangle x="780" y="540" width="50" height="40" as="alternateBounds"/>
                    </mxGeometry>
                </mxCell>
                <mxCell id="244" value="Customer / Manager" style="swimlane;fontStyle=2;align=center;verticalAlign=middle;childLayout=stackLayout;horizontal=1;startSize=26;horizontalStack=0;resizeParent=1;resizeLast=0;collapsible=1;marginBottom=0;rounded=0;shadow=0;strokeWidth=1;fontSize=16;" parent="243" vertex="1">
                    <mxGeometry x="20" y="60" width="170" height="90" as="geometry">
                        <mxRectangle x="20" y="60" width="160" height="26" as="alternateBounds"/>
                    </mxGeometry>
                </mxCell>
                <mxCell id="245" value="" style="line;html=1;strokeWidth=1;align=left;verticalAlign=middle;spacingTop=-1;spacingLeft=3;spacingRight=3;rotatable=0;labelPosition=right;points=[];portConstraint=eastwest;fontSize=16;" parent="244" vertex="1">
                    <mxGeometry y="26" width="170" height="8" as="geometry"/>
                </mxCell>
                <mxCell id="246" value="- customerId" style="text;align=left;verticalAlign=middle;spacingLeft=4;spacingRight=4;overflow=hidden;rotatable=0;points=[[0,0.5],[1,0.5]];portConstraint=eastwest;fontSize=16;" parent="244" vertex="1">
                    <mxGeometry y="34" width="170" height="26" as="geometry"/>
                </mxCell>
                <mxCell id="247" value="Report Flow" style="text;html=1;align=center;verticalAlign=middle;resizable=0;points=[];autosize=1;strokeColor=none;fillColor=none;fontSize=35;" parent="243" vertex="1">
                    <mxGeometry x="20" width="210" height="60" as="geometry"/>
                </mxCell>
                <mxCell id="248" value="Admin" style="swimlane;fontStyle=2;align=center;verticalAlign=middle;childLayout=stackLayout;horizontal=1;startSize=26;horizontalStack=0;resizeParent=1;resizeLast=0;collapsible=1;marginBottom=0;rounded=0;shadow=0;strokeWidth=1;fontSize=16;" parent="243" vertex="1">
                    <mxGeometry x="540" y="30" width="180" height="70" as="geometry">
                        <mxRectangle x="20" y="60" width="160" height="26" as="alternateBounds"/>
                    </mxGeometry>
                </mxCell>
                <mxCell id="249" value="" style="line;html=1;strokeWidth=1;align=left;verticalAlign=middle;spacingTop=-1;spacingLeft=3;spacingRight=3;rotatable=0;labelPosition=right;points=[];portConstraint=eastwest;fontSize=16;" parent="248" vertex="1">
                    <mxGeometry y="26" width="180" height="8" as="geometry"/>
                </mxCell>
                <mxCell id="250" value="- admin_id" style="text;align=left;verticalAlign=middle;spacingLeft=4;spacingRight=4;overflow=hidden;rotatable=0;points=[[0,0.5],[1,0.5]];portConstraint=eastwest;fontSize=16;" parent="248" vertex="1">
                    <mxGeometry y="34" width="180" height="26" as="geometry"/>
                </mxCell>
                <mxCell id="251" style="edgeStyle=orthogonalEdgeStyle;rounded=0;orthogonalLoop=1;jettySize=auto;html=1;entryX=0.006;entryY=0.47;entryDx=0;entryDy=0;endArrow=ERmany;endFill=0;startArrow=ERone;startFill=0;exitX=1.015;exitY=0.321;exitDx=0;exitDy=0;entryPerimeter=0;exitPerimeter=0;fontSize=16;verticalAlign=middle;" parent="243" source="244" target="261" edge="1">
                    <mxGeometry relative="1" as="geometry">
                        <mxPoint x="170" y="98" as="sourcePoint"/>
                        <mxPoint x="230" y="130" as="targetPoint"/>
                    </mxGeometry>
                </mxCell>
                <mxCell id="252" value="report contains site Id" style="text;align=left;verticalAlign=middle;spacingLeft=4;spacingRight=4;overflow=hidden;rotatable=0;points=[[0,0.5],[1,0.5]];portConstraint=eastwest;fontSize=16;" parent="243" vertex="1">
                    <mxGeometry x="240" y="120" width="180" height="26" as="geometry"/>
                </mxCell>
                <mxCell id="253" value="Site" style="swimlane;fontStyle=2;align=center;verticalAlign=middle;childLayout=stackLayout;horizontal=1;startSize=26;horizontalStack=0;resizeParent=1;resizeLast=0;collapsible=1;marginBottom=0;rounded=0;shadow=0;strokeWidth=1;fontSize=16;" parent="243" vertex="1">
                    <mxGeometry x="10" y="235" width="140" height="70" as="geometry">
                        <mxRectangle x="20" y="60" width="160" height="26" as="alternateBounds"/>
                    </mxGeometry>
                </mxCell>
                <mxCell id="254" value="" style="line;html=1;strokeWidth=1;align=left;verticalAlign=middle;spacingTop=-1;spacingLeft=3;spacingRight=3;rotatable=0;labelPosition=right;points=[];portConstraint=eastwest;fontSize=16;" parent="253" vertex="1">
                    <mxGeometry y="26" width="140" height="8" as="geometry"/>
                </mxCell>
                <mxCell id="255" value="- siteId" style="text;align=left;verticalAlign=middle;spacingLeft=4;spacingRight=4;overflow=hidden;rotatable=0;points=[[0,0.5],[1,0.5]];portConstraint=eastwest;fontSize=16;" parent="253" vertex="1">
                    <mxGeometry y="34" width="140" height="26" as="geometry"/>
                </mxCell>
                <mxCell id="256" style="edgeStyle=orthogonalEdgeStyle;rounded=0;orthogonalLoop=1;jettySize=auto;html=1;entryX=0.259;entryY=0.007;entryDx=0;entryDy=0;endArrow=ERmany;endFill=0;startArrow=ERone;startFill=0;entryPerimeter=0;fontSize=16;verticalAlign=middle;" parent="243" source="244" target="253" edge="1">
                    <mxGeometry relative="1" as="geometry">
                        <mxPoint x="320" y="193" as="sourcePoint"/>
                        <mxPoint x="649" y="180" as="targetPoint"/>
                    </mxGeometry>
                </mxCell>
                <mxCell id="257" value="Employee" style="swimlane;fontStyle=2;align=center;verticalAlign=middle;childLayout=stackLayout;horizontal=1;startSize=26;horizontalStack=0;resizeParent=1;resizeLast=0;collapsible=1;marginBottom=0;rounded=0;shadow=0;strokeWidth=1;fontSize=16;" parent="243" vertex="1">
                    <mxGeometry x="30" y="490" width="140" height="70" as="geometry">
                        <mxRectangle x="20" y="60" width="160" height="26" as="alternateBounds"/>
                    </mxGeometry>
                </mxCell>
                <mxCell id="258" value="" style="line;html=1;strokeWidth=1;align=left;verticalAlign=middle;spacingTop=-1;spacingLeft=3;spacingRight=3;rotatable=0;labelPosition=right;points=[];portConstraint=eastwest;fontSize=16;" parent="257" vertex="1">
                    <mxGeometry y="26" width="140" height="8" as="geometry"/>
                </mxCell>
                <mxCell id="259" value="- employeeId" style="text;align=left;verticalAlign=middle;spacingLeft=4;spacingRight=4;overflow=hidden;rotatable=0;points=[[0,0.5],[1,0.5]];portConstraint=eastwest;fontSize=16;" parent="257" vertex="1">
                    <mxGeometry y="34" width="140" height="26" as="geometry"/>
                </mxCell>
                <mxCell id="260" style="edgeStyle=orthogonalEdgeStyle;rounded=0;orthogonalLoop=1;jettySize=auto;html=1;entryX=0.259;entryY=-0.015;entryDx=0;entryDy=0;endArrow=ERmany;endFill=0;startArrow=ERone;startFill=0;entryPerimeter=0;fontSize=16;verticalAlign=middle;exitX=1.012;exitY=0.303;exitDx=0;exitDy=0;exitPerimeter=0;" parent="243" source="253" target="257" edge="1">
                    <mxGeometry relative="1" as="geometry">
                        <mxPoint x="344" y="320" as="sourcePoint"/>
                        <mxPoint x="320" y="430" as="targetPoint"/>
                    </mxGeometry>
                </mxCell>
                <mxCell id="261" value="&lt;span style=&quot;font-size: 16px; text-align: left; text-wrap-mode: nowrap;&quot;&gt;create Report&lt;/span&gt;" style="shape=note;whiteSpace=wrap;html=1;backgroundOutline=1;darkOpacity=0.05;" parent="243" vertex="1">
                    <mxGeometry x="290" y="10" width="110" height="100" as="geometry"/>
                </mxCell>
                <mxCell id="262" style="edgeStyle=orthogonalEdgeStyle;rounded=0;orthogonalLoop=1;jettySize=auto;html=1;entryX=-0.015;entryY=0.216;entryDx=0;entryDy=0;endArrow=ERone;endFill=0;startArrow=ERone;startFill=0;exitX=1;exitY=0.586;exitDx=0;exitDy=0;entryPerimeter=0;exitPerimeter=0;fontSize=16;verticalAlign=middle;" parent="243" source="261" target="248" edge="1">
                    <mxGeometry relative="1" as="geometry">
                        <mxPoint x="560" y="221" as="sourcePoint"/>
                        <mxPoint x="681" y="180" as="targetPoint"/>
                    </mxGeometry>
                </mxCell>
                <mxCell id="263" value="" style="endArrow=classic;html=1;rounded=0;" parent="243" source="270" target="257" edge="1">
                    <mxGeometry relative="1" as="geometry">
                        <mxPoint x="440" y="210" as="sourcePoint"/>
                        <mxPoint x="600" y="210" as="targetPoint"/>
                    </mxGeometry>
                </mxCell>
                <mxCell id="264" value="Target" style="edgeLabel;resizable=0;html=1;;align=right;verticalAlign=bottom;" parent="263" connectable="0" vertex="1">
                    <mxGeometry x="1" relative="1" as="geometry"/>
                </mxCell>
                <mxCell id="265" value="Text" style="edgeLabel;html=1;align=center;verticalAlign=middle;resizable=0;points=[];" parent="263" connectable="0" vertex="1">
                    <mxGeometry x="0.0088" y="-1" relative="1" as="geometry">
                        <mxPoint as="offset"/>
                    </mxGeometry>
                </mxCell>
                <mxCell id="266" value="" style="endArrow=classic;html=1;rounded=0;" parent="243" source="248" target="270" edge="1">
                    <mxGeometry relative="1" as="geometry">
                        <mxPoint x="3700" y="1690" as="sourcePoint"/>
                        <mxPoint x="3250" y="2080" as="targetPoint"/>
                    </mxGeometry>
                </mxCell>
                <mxCell id="267" value="Label" style="edgeLabel;resizable=0;html=1;;align=center;verticalAlign=middle;" parent="266" connectable="0" vertex="1">
                    <mxGeometry relative="1" as="geometry"/>
                </mxCell>
                <mxCell id="268" value="Source" style="edgeLabel;resizable=0;html=1;;align=left;verticalAlign=bottom;" parent="266" connectable="0" vertex="1">
                    <mxGeometry x="-1" relative="1" as="geometry"/>
                </mxCell>
                <mxCell id="269" value="Admin Approved the Report" style="edgeLabel;html=1;align=center;verticalAlign=middle;resizable=0;points=[];" parent="266" connectable="0" vertex="1">
                    <mxGeometry x="-0.0063" y="3" relative="1" as="geometry">
                        <mxPoint as="offset"/>
                    </mxGeometry>
                </mxCell>
                <mxCell id="270" value="Assign Employee To that&amp;nbsp; Report" style="shape=card;whiteSpace=wrap;html=1;" parent="243" vertex="1">
                    <mxGeometry x="390" y="220" width="80" height="100" as="geometry"/>
                </mxCell>
                <mxCell id="271" value="&lt;font style=&quot;font-size: 17px;&quot;&gt;We assume that A Site Can have only one Employee(User)&lt;br&gt;So, we automatically assign&lt;br&gt;That Employee to Customers &lt;br&gt;Report&lt;/font&gt;" style="shape=card;whiteSpace=wrap;html=1;" parent="243" vertex="1">
                    <mxGeometry x="310" y="370" width="200" height="220" as="geometry"/>
                </mxCell>
                <mxCell id="272" style="edgeStyle=orthogonalEdgeStyle;rounded=0;orthogonalLoop=1;jettySize=auto;html=1;entryX=0.006;entryY=0.47;entryDx=0;entryDy=0;endArrow=ERone;endFill=0;startArrow=ERone;startFill=0;exitX=1.001;exitY=0.347;exitDx=0;exitDy=0;entryPerimeter=0;exitPerimeter=0;fontSize=16;verticalAlign=middle;" parent="1" edge="1">
                    <mxGeometry relative="1" as="geometry">
                        <mxPoint x="3870" y="1531" as="sourcePoint"/>
                        <mxPoint x="3991" y="1490" as="targetPoint"/>
                    </mxGeometry>
                </mxCell>
                <mxCell id="273" style="edgeStyle=orthogonalEdgeStyle;rounded=0;orthogonalLoop=1;jettySize=auto;html=1;entryX=0.006;entryY=0.47;entryDx=0;entryDy=0;endArrow=ERone;endFill=0;startArrow=ERone;startFill=0;exitX=1.001;exitY=0.347;exitDx=0;exitDy=0;entryPerimeter=0;exitPerimeter=0;fontSize=16;verticalAlign=middle;" parent="1" edge="1">
                    <mxGeometry relative="1" as="geometry">
                        <mxPoint x="4050" y="1531" as="sourcePoint"/>
                        <mxPoint x="4171" y="1490" as="targetPoint"/>
                    </mxGeometry>
                </mxCell>
                <mxCell id="274" value="Employee (User)" style="swimlane;fontStyle=2;align=center;verticalAlign=middle;childLayout=stackLayout;horizontal=1;startSize=26;horizontalStack=0;resizeParent=1;resizeLast=0;collapsible=1;marginBottom=0;rounded=0;shadow=0;strokeWidth=1;fontSize=16;" parent="1" vertex="1">
                    <mxGeometry x="3690" y="1810" width="140" height="70" as="geometry">
                        <mxRectangle x="20" y="60" width="160" height="26" as="alternateBounds"/>
                    </mxGeometry>
                </mxCell>
                <mxCell id="275" value="" style="line;html=1;strokeWidth=1;align=left;verticalAlign=middle;spacingTop=-1;spacingLeft=3;spacingRight=3;rotatable=0;labelPosition=right;points=[];portConstraint=eastwest;fontSize=16;" parent="274" vertex="1">
                    <mxGeometry y="26" width="140" height="8" as="geometry"/>
                </mxCell>
                <mxCell id="276" value="- customerId" style="text;align=left;verticalAlign=middle;spacingLeft=4;spacingRight=4;overflow=hidden;rotatable=0;points=[[0,0.5],[1,0.5]];portConstraint=eastwest;fontSize=16;" parent="274" vertex="1">
                    <mxGeometry y="34" width="140" height="26" as="geometry"/>
                </mxCell>
                <mxCell id="277" value="Admin" style="swimlane;fontStyle=2;align=center;verticalAlign=middle;childLayout=stackLayout;horizontal=1;startSize=26;horizontalStack=0;resizeParent=1;resizeLast=0;collapsible=1;marginBottom=0;rounded=0;shadow=0;strokeWidth=1;fontSize=16;" parent="1" vertex="1">
                    <mxGeometry x="4210" y="1780" width="180" height="70" as="geometry">
                        <mxRectangle x="20" y="60" width="160" height="26" as="alternateBounds"/>
                    </mxGeometry>
                </mxCell>
                <mxCell id="278" value="" style="line;html=1;strokeWidth=1;align=left;verticalAlign=middle;spacingTop=-1;spacingLeft=3;spacingRight=3;rotatable=0;labelPosition=right;points=[];portConstraint=eastwest;fontSize=16;" parent="277" vertex="1">
                    <mxGeometry y="26" width="180" height="8" as="geometry"/>
                </mxCell>
                <mxCell id="279" value="- admin_id" style="text;align=left;verticalAlign=middle;spacingLeft=4;spacingRight=4;overflow=hidden;rotatable=0;points=[[0,0.5],[1,0.5]];portConstraint=eastwest;fontSize=16;" parent="277" vertex="1">
                    <mxGeometry y="34" width="180" height="26" as="geometry"/>
                </mxCell>
                <mxCell id="280" style="edgeStyle=orthogonalEdgeStyle;rounded=0;orthogonalLoop=1;jettySize=auto;html=1;entryX=0.006;entryY=0.47;entryDx=0;entryDy=0;endArrow=ERmany;endFill=0;startArrow=ERone;startFill=0;exitX=1.015;exitY=0.321;exitDx=0;exitDy=0;entryPerimeter=0;exitPerimeter=0;fontSize=16;verticalAlign=middle;" parent="1" source="274" target="286" edge="1">
                    <mxGeometry relative="1" as="geometry">
                        <mxPoint x="3840" y="1848" as="sourcePoint"/>
                        <mxPoint x="3900" y="1880" as="targetPoint"/>
                    </mxGeometry>
                </mxCell>
                <mxCell id="281" value="report contains site Id" style="text;align=left;verticalAlign=middle;spacingLeft=4;spacingRight=4;overflow=hidden;rotatable=0;points=[[0,0.5],[1,0.5]];portConstraint=eastwest;fontSize=16;" parent="1" vertex="1">
                    <mxGeometry x="3910" y="1870" width="180" height="26" as="geometry"/>
                </mxCell>
                <mxCell id="282" value="Site" style="swimlane;fontStyle=2;align=center;verticalAlign=middle;childLayout=stackLayout;horizontal=1;startSize=26;horizontalStack=0;resizeParent=1;resizeLast=0;collapsible=1;marginBottom=0;rounded=0;shadow=0;strokeWidth=1;fontSize=16;" parent="1" vertex="1">
                    <mxGeometry x="3680" y="1985" width="140" height="70" as="geometry">
                        <mxRectangle x="20" y="60" width="160" height="26" as="alternateBounds"/>
                    </mxGeometry>
                </mxCell>
                <mxCell id="283" value="" style="line;html=1;strokeWidth=1;align=left;verticalAlign=middle;spacingTop=-1;spacingLeft=3;spacingRight=3;rotatable=0;labelPosition=right;points=[];portConstraint=eastwest;fontSize=16;" parent="282" vertex="1">
                    <mxGeometry y="26" width="140" height="8" as="geometry"/>
                </mxCell>
                <mxCell id="284" value="- siteId" style="text;align=left;verticalAlign=middle;spacingLeft=4;spacingRight=4;overflow=hidden;rotatable=0;points=[[0,0.5],[1,0.5]];portConstraint=eastwest;fontSize=16;" parent="282" vertex="1">
                    <mxGeometry y="34" width="140" height="26" as="geometry"/>
                </mxCell>
                <mxCell id="285" style="edgeStyle=orthogonalEdgeStyle;rounded=0;orthogonalLoop=1;jettySize=auto;html=1;entryX=0.259;entryY=0.007;entryDx=0;entryDy=0;endArrow=ERmany;endFill=0;startArrow=ERone;startFill=0;entryPerimeter=0;fontSize=16;verticalAlign=middle;" parent="1" source="274" target="282" edge="1">
                    <mxGeometry relative="1" as="geometry">
                        <mxPoint x="3990" y="1943" as="sourcePoint"/>
                        <mxPoint x="4319" y="1930" as="targetPoint"/>
                    </mxGeometry>
                </mxCell>
                <mxCell id="286" value="&lt;span style=&quot;font-size: 16px; text-align: left; text-wrap-mode: nowrap;&quot;&gt;create Report&lt;/span&gt;" style="shape=note;whiteSpace=wrap;html=1;backgroundOutline=1;darkOpacity=0.05;" parent="1" vertex="1">
                    <mxGeometry x="3960" y="1760" width="110" height="100" as="geometry"/>
                </mxCell>
                <mxCell id="287" style="edgeStyle=orthogonalEdgeStyle;rounded=0;orthogonalLoop=1;jettySize=auto;html=1;entryX=-0.015;entryY=0.216;entryDx=0;entryDy=0;endArrow=ERone;endFill=0;startArrow=ERone;startFill=0;exitX=1;exitY=0.586;exitDx=0;exitDy=0;entryPerimeter=0;exitPerimeter=0;fontSize=16;verticalAlign=middle;" parent="1" source="286" target="277" edge="1">
                    <mxGeometry relative="1" as="geometry">
                        <mxPoint x="4230" y="1971" as="sourcePoint"/>
                        <mxPoint x="4351" y="1930" as="targetPoint"/>
                    </mxGeometry>
                </mxCell>
                <mxCell id="288" value="" style="endArrow=classic;html=1;rounded=0;" parent="1" source="277" target="292" edge="1">
                    <mxGeometry relative="1" as="geometry">
                        <mxPoint x="7370" y="3440" as="sourcePoint"/>
                        <mxPoint x="6920" y="3830" as="targetPoint"/>
                    </mxGeometry>
                </mxCell>
                <mxCell id="289" value="Label" style="edgeLabel;resizable=0;html=1;;align=center;verticalAlign=middle;" parent="288" connectable="0" vertex="1">
                    <mxGeometry relative="1" as="geometry"/>
                </mxCell>
                <mxCell id="290" value="Source" style="edgeLabel;resizable=0;html=1;;align=left;verticalAlign=bottom;" parent="288" connectable="0" vertex="1">
                    <mxGeometry x="-1" relative="1" as="geometry"/>
                </mxCell>
                <mxCell id="291" value="Text" style="edgeLabel;html=1;align=center;verticalAlign=middle;resizable=0;points=[];" parent="288" connectable="0" vertex="1">
                    <mxGeometry x="-0.0063" y="3" relative="1" as="geometry">
                        <mxPoint as="offset"/>
                    </mxGeometry>
                </mxCell>
                <mxCell id="292" value="Change Status between underReview tp accept / deny" style="shape=card;whiteSpace=wrap;html=1;" parent="1" vertex="1">
                    <mxGeometry x="4060" y="1970" width="100" height="160" as="geometry"/>
                </mxCell>
                <mxCell id="293" value="" style="swimlane;startSize=0;" parent="1" vertex="1">
                    <mxGeometry x="3120" y="2210" width="930" height="830" as="geometry">
                        <mxRectangle x="780" y="540" width="50" height="40" as="alternateBounds"/>
                    </mxGeometry>
                </mxCell>
                <mxCell id="294" value="Admin" style="swimlane;fontStyle=2;align=center;verticalAlign=middle;childLayout=stackLayout;horizontal=1;startSize=26;horizontalStack=0;resizeParent=1;resizeLast=0;collapsible=1;marginBottom=0;rounded=0;shadow=0;strokeWidth=1;fontSize=16;fillColor=#e1d5e7;strokeColor=#9673a6;" parent="293" vertex="1">
                    <mxGeometry x="120" y="70" width="170" height="70" as="geometry">
                        <mxRectangle x="20" y="60" width="160" height="26" as="alternateBounds"/>
                    </mxGeometry>
                </mxCell>
                <mxCell id="295" value="" style="line;html=1;strokeWidth=1;align=left;verticalAlign=middle;spacingTop=-1;spacingLeft=3;spacingRight=3;rotatable=0;labelPosition=right;points=[];portConstraint=eastwest;fontSize=16;" parent="294" vertex="1">
                    <mxGeometry y="26" width="170" height="8" as="geometry"/>
                </mxCell>
                <mxCell id="296" value="- adminId" style="text;align=left;verticalAlign=middle;spacingLeft=4;spacingRight=4;overflow=hidden;rotatable=0;points=[[0,0.5],[1,0.5]];portConstraint=eastwest;fontSize=16;" parent="294" vertex="1">
                    <mxGeometry y="34" width="170" height="26" as="geometry"/>
                </mxCell>
                <mxCell id="297" value="Conversation Control Flow (Its not updated )" style="text;html=1;align=center;verticalAlign=middle;resizable=0;points=[];autosize=1;strokeColor=none;fillColor=none;fontSize=35;" parent="293" vertex="1">
                    <mxGeometry x="30" width="710" height="60" as="geometry"/>
                </mxCell>
                <mxCell id="298" value="Manager ( Customer Side)" style="swimlane;fontStyle=2;align=center;verticalAlign=middle;childLayout=stackLayout;horizontal=1;startSize=26;horizontalStack=0;resizeParent=1;resizeLast=0;collapsible=1;marginBottom=0;rounded=0;shadow=0;strokeWidth=1;fontSize=16;" parent="293" vertex="1">
                    <mxGeometry x="310" y="70" width="220" height="70" as="geometry">
                        <mxRectangle x="20" y="60" width="160" height="26" as="alternateBounds"/>
                    </mxGeometry>
                </mxCell>
                <mxCell id="299" value="" style="line;html=1;strokeWidth=1;align=left;verticalAlign=middle;spacingTop=-1;spacingLeft=3;spacingRight=3;rotatable=0;labelPosition=right;points=[];portConstraint=eastwest;fontSize=16;" parent="298" vertex="1">
                    <mxGeometry y="26" width="220" height="8" as="geometry"/>
                </mxCell>
                <mxCell id="300" value="- manager_id" style="text;align=left;verticalAlign=middle;spacingLeft=4;spacingRight=4;overflow=hidden;rotatable=0;points=[[0,0.5],[1,0.5]];portConstraint=eastwest;fontSize=16;" parent="298" vertex="1">
                    <mxGeometry y="34" width="220" height="26" as="geometry"/>
                </mxCell>
                <mxCell id="301" value="Customer" style="swimlane;fontStyle=2;align=center;verticalAlign=middle;childLayout=stackLayout;horizontal=1;startSize=26;horizontalStack=0;resizeParent=1;resizeLast=0;collapsible=1;marginBottom=0;rounded=0;shadow=0;strokeWidth=1;fontSize=16;" parent="293" vertex="1">
                    <mxGeometry x="570" y="70" width="140" height="70" as="geometry">
                        <mxRectangle x="20" y="60" width="160" height="26" as="alternateBounds"/>
                    </mxGeometry>
                </mxCell>
                <mxCell id="302" value="" style="line;html=1;strokeWidth=1;align=left;verticalAlign=middle;spacingTop=-1;spacingLeft=3;spacingRight=3;rotatable=0;labelPosition=right;points=[];portConstraint=eastwest;fontSize=16;" parent="301" vertex="1">
                    <mxGeometry y="26" width="140" height="8" as="geometry"/>
                </mxCell>
                <mxCell id="303" value="- customerId" style="text;align=left;verticalAlign=middle;spacingLeft=4;spacingRight=4;overflow=hidden;rotatable=0;points=[[0,0.5],[1,0.5]];portConstraint=eastwest;fontSize=16;" parent="301" vertex="1">
                    <mxGeometry y="34" width="140" height="26" as="geometry"/>
                </mxCell>
                <mxCell id="304" value="&lt;span style=&quot;font-size: 16px; text-align: left; text-wrap-mode: nowrap;&quot;&gt;send message&lt;/span&gt;&lt;div&gt;&lt;span style=&quot;font-size: 16px; text-align: left; text-wrap-mode: nowrap;&quot;&gt;to Manager&lt;/span&gt;&lt;/div&gt;" style="shape=note;whiteSpace=wrap;html=1;backgroundOutline=1;darkOpacity=0.05;" parent="293" vertex="1">
                    <mxGeometry x="120" y="190" width="110" height="100" as="geometry"/>
                </mxCell>
                <mxCell id="305" value="User ( Employee)" style="swimlane;fontStyle=2;align=center;verticalAlign=middle;childLayout=stackLayout;horizontal=1;startSize=26;horizontalStack=0;resizeParent=1;resizeLast=0;collapsible=1;marginBottom=0;rounded=0;shadow=0;strokeWidth=1;fontSize=16;" parent="293" vertex="1">
                    <mxGeometry x="740" y="70" width="140" height="70" as="geometry">
                        <mxRectangle x="20" y="60" width="160" height="26" as="alternateBounds"/>
                    </mxGeometry>
                </mxCell>
                <mxCell id="306" value="" style="line;html=1;strokeWidth=1;align=left;verticalAlign=middle;spacingTop=-1;spacingLeft=3;spacingRight=3;rotatable=0;labelPosition=right;points=[];portConstraint=eastwest;fontSize=16;" parent="305" vertex="1">
                    <mxGeometry y="26" width="140" height="8" as="geometry"/>
                </mxCell>
                <mxCell id="307" value="- userId" style="text;align=left;verticalAlign=middle;spacingLeft=4;spacingRight=4;overflow=hidden;rotatable=0;points=[[0,0.5],[1,0.5]];portConstraint=eastwest;fontSize=16;" parent="305" vertex="1">
                    <mxGeometry y="34" width="140" height="26" as="geometry"/>
                </mxCell>
                <mxCell id="308" value="&lt;span style=&quot;font-size: 16px; text-align: left; text-wrap-mode: nowrap;&quot;&gt;send message&lt;/span&gt;&lt;div&gt;&lt;span style=&quot;font-size: 16px; text-align: left; text-wrap-mode: nowrap;&quot;&gt;to Customer&lt;/span&gt;&lt;/div&gt;" style="shape=note;whiteSpace=wrap;html=1;backgroundOutline=1;darkOpacity=0.05;" parent="293" vertex="1">
                    <mxGeometry x="360" y="180" width="110" height="100" as="geometry"/>
                </mxCell>
                <mxCell id="309" value="&lt;span style=&quot;font-size: 16px; text-align: left; text-wrap-mode: nowrap;&quot;&gt;send message&lt;/span&gt;&lt;div&gt;&lt;span style=&quot;font-size: 16px; text-align: left; text-wrap-mode: nowrap;&quot;&gt;to Manager&lt;/span&gt;&lt;/div&gt;" style="shape=note;whiteSpace=wrap;html=1;backgroundOutline=1;darkOpacity=0.05;" parent="293" vertex="1">
                    <mxGeometry x="585" y="190" width="110" height="100" as="geometry"/>
                </mxCell>
                <mxCell id="310" value="&lt;span style=&quot;font-size: 16px; text-align: left; text-wrap-mode: nowrap;&quot;&gt;send message&lt;/span&gt;&lt;div&gt;&lt;span style=&quot;font-size: 16px; text-align: left; text-wrap-mode: nowrap;&quot;&gt;to Admin&lt;/span&gt;&lt;/div&gt;" style="shape=note;whiteSpace=wrap;html=1;backgroundOutline=1;darkOpacity=0.05;fillColor=#e1d5e7;strokeColor=#9673a6;" parent="293" vertex="1">
                    <mxGeometry x="360" y="310" width="110" height="100" as="geometry"/>
                </mxCell>
                <mxCell id="311" value="&lt;span style=&quot;font-size: 16px; text-align: left; text-wrap-mode: nowrap;&quot;&gt;send message&lt;/span&gt;&lt;div&gt;&lt;span style=&quot;font-size: 16px; text-align: left; text-wrap-mode: nowrap;&quot;&gt;to Admin&lt;/span&gt;&lt;/div&gt;" style="shape=note;whiteSpace=wrap;html=1;backgroundOutline=1;darkOpacity=0.05;fillColor=#e1d5e7;strokeColor=#9673a6;" parent="293" vertex="1">
                    <mxGeometry x="580" y="310" width="110" height="100" as="geometry"/>
                </mxCell>
                <mxCell id="312" value="&lt;span style=&quot;font-size: 16px; text-align: left; text-wrap-mode: nowrap;&quot;&gt;send message&lt;/span&gt;&lt;div&gt;&lt;span style=&quot;font-size: 16px; text-align: left; text-wrap-mode: nowrap;&quot;&gt;to User&lt;/span&gt;&lt;/div&gt;" style="shape=note;whiteSpace=wrap;html=1;backgroundOutline=1;darkOpacity=0.05;" parent="293" vertex="1">
                    <mxGeometry x="120" y="320" width="110" height="100" as="geometry"/>
                </mxCell>
                <mxCell id="313" value="&lt;div style=&quot;text-align: left;&quot;&gt;&lt;span style=&quot;background-color: transparent; color: light-dark(rgb(0, 0, 0), rgb(255, 255, 255)); font-size: 16px; text-wrap-mode: nowrap;&quot;&gt;Can Restrict Manager&amp;nbsp;&lt;/span&gt;&lt;/div&gt;&lt;div style=&quot;text-align: left;&quot;&gt;&lt;span style=&quot;background-color: transparent; color: light-dark(rgb(0, 0, 0), rgb(255, 255, 255)); font-size: 16px; text-wrap-mode: nowrap;&quot;&gt;to send message&amp;nbsp;&lt;/span&gt;&lt;/div&gt;&lt;div style=&quot;text-align: left;&quot;&gt;&lt;span style=&quot;background-color: transparent; color: light-dark(rgb(0, 0, 0), rgb(255, 255, 255)); font-size: 16px; text-wrap-mode: nowrap;&quot;&gt;to Employee (USER)&lt;/span&gt;&lt;/div&gt;" style="shape=note;whiteSpace=wrap;html=1;backgroundOutline=1;darkOpacity=0.05;" parent="293" vertex="1">
                    <mxGeometry x="120" y="450" width="180" height="160" as="geometry"/>
                </mxCell>
                <mxCell id="314" value="&lt;div style=&quot;text-align: left;&quot;&gt;&lt;span style=&quot;background-color: transparent; color: light-dark(rgb(0, 0, 0), rgb(255, 255, 255)); font-size: 16px; text-wrap-mode: nowrap;&quot;&gt;Can Restrict Customer&lt;/span&gt;&lt;/div&gt;&lt;div style=&quot;text-align: left;&quot;&gt;&lt;span style=&quot;background-color: transparent; color: light-dark(rgb(0, 0, 0), rgb(255, 255, 255)); font-size: 16px; text-wrap-mode: nowrap;&quot;&gt;to send message&amp;nbsp;&lt;/span&gt;&lt;/div&gt;&lt;div style=&quot;text-align: left;&quot;&gt;&lt;span style=&quot;background-color: transparent; color: light-dark(rgb(0, 0, 0), rgb(255, 255, 255)); font-size: 16px; text-wrap-mode: nowrap;&quot;&gt;to Employee (USER)&lt;/span&gt;&lt;/div&gt;" style="shape=note;whiteSpace=wrap;html=1;backgroundOutline=1;darkOpacity=0.05;" parent="293" vertex="1">
                    <mxGeometry x="120" y="630" width="180" height="160" as="geometry"/>
                </mxCell>
                <mxCell id="315" value="&lt;span style=&quot;font-size: 16px; text-align: left; text-wrap-mode: nowrap;&quot;&gt;send message&lt;/span&gt;&lt;div&gt;&lt;span style=&quot;font-size: 16px; text-align: left; text-wrap-mode: nowrap;&quot;&gt;to Admin&lt;/span&gt;&lt;/div&gt;" style="shape=note;whiteSpace=wrap;html=1;backgroundOutline=1;darkOpacity=0.05;fillColor=#e1d5e7;strokeColor=#9673a6;" parent="293" vertex="1">
                    <mxGeometry x="755" y="310" width="110" height="100" as="geometry"/>
                </mxCell>
                <mxCell id="316" value="" style="swimlane;startSize=0;" parent="1" vertex="1">
                    <mxGeometry x="1730" y="170" width="1320" height="620" as="geometry">
                        <mxRectangle x="780" y="540" width="50" height="40" as="alternateBounds"/>
                    </mxGeometry>
                </mxCell>
                <mxCell id="317" value="Customer / user / manager" style="swimlane;fontStyle=2;align=center;verticalAlign=middle;childLayout=stackLayout;horizontal=1;startSize=26;horizontalStack=0;resizeParent=1;resizeLast=0;collapsible=1;marginBottom=0;rounded=0;shadow=0;strokeWidth=1;fontSize=16;" parent="316" vertex="1">
                    <mxGeometry x="20" y="60" width="200" height="90" as="geometry">
                        <mxRectangle x="20" y="60" width="160" height="26" as="alternateBounds"/>
                    </mxGeometry>
                </mxCell>
                <mxCell id="318" value="" style="line;html=1;strokeWidth=1;align=left;verticalAlign=middle;spacingTop=-1;spacingLeft=3;spacingRight=3;rotatable=0;labelPosition=right;points=[];portConstraint=eastwest;fontSize=16;" parent="317" vertex="1">
                    <mxGeometry y="26" width="200" height="8" as="geometry"/>
                </mxCell>
                <mxCell id="319" value="- customerId" style="text;align=left;verticalAlign=middle;spacingLeft=4;spacingRight=4;overflow=hidden;rotatable=0;points=[[0,0.5],[1,0.5]];portConstraint=eastwest;fontSize=16;" parent="317" vertex="1">
                    <mxGeometry y="34" width="200" height="26" as="geometry"/>
                </mxCell>
                <mxCell id="320" value="Camera Customer Flow" style="text;html=1;align=center;verticalAlign=middle;resizable=0;points=[];autosize=1;strokeColor=none;fillColor=none;fontSize=35;" parent="316" vertex="1">
                    <mxGeometry x="910" y="20" width="390" height="60" as="geometry"/>
                </mxCell>
                <mxCell id="321" style="edgeStyle=orthogonalEdgeStyle;rounded=0;orthogonalLoop=1;jettySize=auto;html=1;entryX=0.006;entryY=0.47;entryDx=0;entryDy=0;endArrow=ERmany;endFill=0;startArrow=ERone;startFill=0;exitX=1.015;exitY=0.321;exitDx=0;exitDy=0;entryPerimeter=0;exitPerimeter=0;fontSize=16;verticalAlign=middle;" parent="316" source="317" target="326" edge="1">
                    <mxGeometry relative="1" as="geometry">
                        <mxPoint x="170" y="98" as="sourcePoint"/>
                        <mxPoint x="230" y="130" as="targetPoint"/>
                    </mxGeometry>
                </mxCell>
                <mxCell id="322" value="Admin" style="swimlane;fontStyle=2;align=center;verticalAlign=middle;childLayout=stackLayout;horizontal=1;startSize=26;horizontalStack=0;resizeParent=1;resizeLast=0;collapsible=1;marginBottom=0;rounded=0;shadow=0;strokeWidth=1;fontSize=16;" parent="316" vertex="1">
                    <mxGeometry x="20" y="272" width="140" height="70" as="geometry">
                        <mxRectangle x="20" y="60" width="160" height="26" as="alternateBounds"/>
                    </mxGeometry>
                </mxCell>
                <mxCell id="323" value="" style="line;html=1;strokeWidth=1;align=left;verticalAlign=middle;spacingTop=-1;spacingLeft=3;spacingRight=3;rotatable=0;labelPosition=right;points=[];portConstraint=eastwest;fontSize=16;" parent="322" vertex="1">
                    <mxGeometry y="26" width="140" height="8" as="geometry"/>
                </mxCell>
                <mxCell id="324" value="- siteId" style="text;align=left;verticalAlign=middle;spacingLeft=4;spacingRight=4;overflow=hidden;rotatable=0;points=[[0,0.5],[1,0.5]];portConstraint=eastwest;fontSize=16;" parent="322" vertex="1">
                    <mxGeometry y="34" width="140" height="26" as="geometry"/>
                </mxCell>
                <mxCell id="325" style="edgeStyle=orthogonalEdgeStyle;rounded=0;orthogonalLoop=1;jettySize=auto;html=1;entryX=0.002;entryY=0.31;entryDx=0;entryDy=0;endArrow=ERmany;endFill=0;startArrow=ERone;startFill=0;entryPerimeter=0;fontSize=16;verticalAlign=middle;exitX=1.012;exitY=0.303;exitDx=0;exitDy=0;exitPerimeter=0;" parent="316" source="322" target="339" edge="1">
                    <mxGeometry relative="1" as="geometry">
                        <mxPoint x="344" y="320" as="sourcePoint"/>
                        <mxPoint x="320" y="430" as="targetPoint"/>
                    </mxGeometry>
                </mxCell>
                <mxCell id="326" value="&lt;span style=&quot;font-size: 16px; text-align: left; text-wrap-mode: nowrap;&quot;&gt;want to&lt;/span&gt;&lt;div style=&quot;text-align: left;&quot;&gt;&lt;span style=&quot;font-size: 16px; text-wrap-mode: nowrap;&quot;&gt;see all&lt;/span&gt;&lt;/div&gt;&lt;div style=&quot;text-align: left;&quot;&gt;&lt;span style=&quot;font-size: 16px; text-wrap-mode: nowrap;&quot;&gt;camera of a&lt;/span&gt;&lt;/div&gt;&lt;div style=&quot;text-align: left;&quot;&gt;&lt;span style=&quot;font-size: 16px; text-wrap-mode: nowrap;&quot;&gt;site&lt;/span&gt;&lt;/div&gt;" style="shape=note;whiteSpace=wrap;html=1;backgroundOutline=1;darkOpacity=0.05;" parent="316" vertex="1">
                    <mxGeometry x="285" y="35" width="120" height="115" as="geometry"/>
                </mxCell>
                <mxCell id="327" style="edgeStyle=orthogonalEdgeStyle;rounded=0;orthogonalLoop=1;jettySize=auto;html=1;endArrow=ERone;endFill=0;startArrow=ERone;startFill=0;exitX=1;exitY=0.586;exitDx=0;exitDy=0;exitPerimeter=0;fontSize=16;verticalAlign=middle;" parent="316" source="326" target="328" edge="1">
                    <mxGeometry relative="1" as="geometry">
                        <mxPoint x="560" y="221" as="sourcePoint"/>
                        <mxPoint x="467.2999999999997" y="77.11999999999989" as="targetPoint"/>
                    </mxGeometry>
                </mxCell>
                <mxCell id="328" value="Camera Customer Relation ðŸ©¹ðŸŒ€" style="swimlane;fontStyle=2;align=center;verticalAlign=middle;childLayout=stackLayout;horizontal=1;startSize=26;horizontalStack=0;resizeParent=1;resizeLast=0;collapsible=1;marginBottom=0;rounded=0;shadow=0;strokeWidth=1;fontSize=16;fillColor=#ffe6cc;strokeColor=#d79b00;" parent="316" vertex="1">
                    <mxGeometry x="480" y="22" width="350" height="190" as="geometry">
                        <mxRectangle x="20" y="60" width="160" height="26" as="alternateBounds"/>
                    </mxGeometry>
                </mxCell>
                <mxCell id="329" value="" style="line;html=1;strokeWidth=1;align=left;verticalAlign=middle;spacingTop=-1;spacingLeft=3;spacingRight=3;rotatable=0;labelPosition=right;points=[];portConstraint=eastwest;fontSize=16;" parent="328" vertex="1">
                    <mxGeometry y="26" width="350" height="8" as="geometry"/>
                </mxCell>
                <mxCell id="330" value="- camera_customer_relation_id" style="text;align=left;verticalAlign=middle;spacingLeft=4;spacingRight=4;overflow=hidden;rotatable=0;points=[[0,0.5],[1,0.5]];portConstraint=eastwest;fontSize=16;" parent="328" vertex="1">
                    <mxGeometry y="34" width="350" height="26" as="geometry"/>
                </mxCell>
                <mxCell id="331" value="- camera_Id ðŸ”–Â FK" style="text;align=left;verticalAlign=middle;spacingLeft=4;spacingRight=4;overflow=hidden;rotatable=0;points=[[0,0.5],[1,0.5]];portConstraint=eastwest;fontSize=16;" parent="328" vertex="1">
                    <mxGeometry y="60" width="350" height="26" as="geometry"/>
                </mxCell>
                <mxCell id="332" value="- person_Id ðŸ”–Â FK" style="text;align=left;verticalAlign=middle;spacingLeft=4;spacingRight=4;overflow=hidden;rotatable=0;points=[[0,0.5],[1,0.5]];portConstraint=eastwest;fontSize=16;" parent="328" vertex="1">
                    <mxGeometry y="86" width="350" height="26" as="geometry"/>
                </mxCell>
                <mxCell id="333" value="- role [ customerÂ  / user / manager / admin]" style="text;align=left;verticalAlign=middle;spacingLeft=4;spacingRight=4;overflow=hidden;rotatable=0;points=[[0,0.5],[1,0.5]];portConstraint=eastwest;fontSize=16;" parent="328" vertex="1">
                    <mxGeometry y="112" width="350" height="26" as="geometry"/>
                </mxCell>
                <mxCell id="334" value="- site_Id ðŸ”–Â FKÂ " style="text;align=left;verticalAlign=middle;spacingLeft=4;spacingRight=4;overflow=hidden;rotatable=0;points=[[0,0.5],[1,0.5]];portConstraint=eastwest;fontSize=16;" parent="328" vertex="1">
                    <mxGeometry y="138" width="350" height="26" as="geometry"/>
                </mxCell>
                <mxCell id="335" value="- status âš¡Â  [ enable / disable ]" style="text;align=left;verticalAlign=middle;spacingLeft=4;spacingRight=4;overflow=hidden;rotatable=0;points=[[0,0.5],[1,0.5]];portConstraint=eastwest;fontSize=16;" parent="328" vertex="1">
                    <mxGeometry y="164" width="350" height="26" as="geometry"/>
                </mxCell>
                <mxCell id="336" value="Admin" style="swimlane;fontStyle=2;align=center;verticalAlign=middle;childLayout=stackLayout;horizontal=1;startSize=26;horizontalStack=0;resizeParent=1;resizeLast=0;collapsible=1;marginBottom=0;rounded=0;shadow=0;strokeWidth=1;fontSize=16;" parent="316" vertex="1">
                    <mxGeometry x="30" y="500" width="180" height="70" as="geometry">
                        <mxRectangle x="20" y="60" width="160" height="26" as="alternateBounds"/>
                    </mxGeometry>
                </mxCell>
                <mxCell id="337" value="" style="line;html=1;strokeWidth=1;align=left;verticalAlign=middle;spacingTop=-1;spacingLeft=3;spacingRight=3;rotatable=0;labelPosition=right;points=[];portConstraint=eastwest;fontSize=16;" parent="336" vertex="1">
                    <mxGeometry y="26" width="180" height="8" as="geometry"/>
                </mxCell>
                <mxCell id="338" value="- admin_id" style="text;align=left;verticalAlign=middle;spacingLeft=4;spacingRight=4;overflow=hidden;rotatable=0;points=[[0,0.5],[1,0.5]];portConstraint=eastwest;fontSize=16;" parent="336" vertex="1">
                    <mxGeometry y="34" width="180" height="26" as="geometry"/>
                </mxCell>
                <mxCell id="339" value="&lt;span style=&quot;font-size: 16px; text-wrap-mode: nowrap;&quot;&gt;want to give&amp;nbsp;&lt;/span&gt;&lt;div&gt;&lt;span style=&quot;font-size: 16px; text-wrap-mode: nowrap;&quot;&gt;permission&lt;/span&gt;&lt;/div&gt;&lt;div&gt;&lt;span style=&quot;font-size: 16px; text-wrap-mode: nowrap;&quot;&gt;who can see&amp;nbsp;&lt;/span&gt;&lt;/div&gt;&lt;div&gt;&lt;span style=&quot;font-size: 16px; text-wrap-mode: nowrap;&quot;&gt;camera&lt;/span&gt;&lt;/div&gt;" style="shape=note;whiteSpace=wrap;html=1;backgroundOutline=1;darkOpacity=0.05;" parent="316" vertex="1">
                    <mxGeometry x="285" y="262" width="100" height="147" as="geometry"/>
                </mxCell>
                <mxCell id="340" style="edgeStyle=orthogonalEdgeStyle;rounded=0;orthogonalLoop=1;jettySize=auto;html=1;endArrow=ERone;endFill=0;startArrow=ERone;startFill=0;exitX=0.974;exitY=0.28;exitDx=0;exitDy=0;exitPerimeter=0;fontSize=16;verticalAlign=middle;" parent="316" source="339" target="328" edge="1">
                    <mxGeometry relative="1" as="geometry">
                        <mxPoint x="490" y="340" as="sourcePoint"/>
                        <mxPoint x="565" y="355" as="targetPoint"/>
                    </mxGeometry>
                </mxCell>
                <mxCell id="341" value="&lt;span style=&quot;font-size: 16px; text-wrap-mode: nowrap;&quot;&gt;create a&amp;nbsp;&lt;/span&gt;&lt;div&gt;&lt;span style=&quot;font-size: 16px; text-wrap-mode: nowrap;&quot;&gt;camera&lt;/span&gt;&lt;/div&gt;" style="shape=note;whiteSpace=wrap;html=1;backgroundOutline=1;darkOpacity=0.05;" parent="316" vertex="1">
                    <mxGeometry x="285" y="470" width="100" height="130" as="geometry"/>
                </mxCell>
                <mxCell id="342" value="&lt;span style=&quot;font-size: 16px; text-wrap-mode: nowrap;&quot;&gt;Give Admin ,&lt;/span&gt;&lt;div&gt;&lt;span style=&quot;font-size: 16px; text-wrap-mode: nowrap;&quot;&gt;Manager&amp;nbsp;&lt;/span&gt;&lt;/div&gt;&lt;div&gt;&lt;span style=&quot;font-size: 16px; text-wrap-mode: nowrap;&quot;&gt;permission&amp;nbsp;&lt;/span&gt;&lt;/div&gt;&lt;div&gt;&lt;span style=&quot;font-size: 16px; text-wrap-mode: nowrap;&quot;&gt;to see that&lt;/span&gt;&lt;/div&gt;&lt;div&gt;&lt;span style=&quot;font-size: 16px; text-wrap-mode: nowrap;&quot;&gt;camera&lt;/span&gt;&lt;/div&gt;" style="shape=note;whiteSpace=wrap;html=1;backgroundOutline=1;darkOpacity=0.05;" parent="316" vertex="1">
                    <mxGeometry x="430" y="440" width="100" height="170" as="geometry"/>
                </mxCell>
                <mxCell id="343" style="edgeStyle=orthogonalEdgeStyle;rounded=0;orthogonalLoop=1;jettySize=auto;html=1;endArrow=ERone;endFill=0;startArrow=ERone;startFill=0;exitX=0.999;exitY=0.215;exitDx=0;exitDy=0;exitPerimeter=0;fontSize=16;verticalAlign=middle;entryX=-0.007;entryY=0.407;entryDx=0;entryDy=0;entryPerimeter=0;" parent="316" source="336" target="341" edge="1">
                    <mxGeometry relative="1" as="geometry">
                        <mxPoint x="620" y="470" as="sourcePoint"/>
                        <mxPoint x="695" y="485" as="targetPoint"/>
                    </mxGeometry>
                </mxCell>
                <mxCell id="344" style="edgeStyle=orthogonalEdgeStyle;rounded=0;orthogonalLoop=1;jettySize=auto;html=1;endArrow=ERone;endFill=0;startArrow=ERone;startFill=0;exitX=1.02;exitY=0.516;exitDx=0;exitDy=0;exitPerimeter=0;fontSize=16;verticalAlign=middle;entryX=-0.014;entryY=0.488;entryDx=0;entryDy=0;entryPerimeter=0;" parent="316" source="341" target="342" edge="1">
                    <mxGeometry relative="1" as="geometry">
                        <mxPoint x="380" y="421" as="sourcePoint"/>
                        <mxPoint x="454" y="429" as="targetPoint"/>
                    </mxGeometry>
                </mxCell>
                <mxCell id="345" value="1" style="text;html=1;align=center;verticalAlign=middle;resizable=0;points=[];autosize=1;strokeColor=none;fillColor=none;fontSize=35;" parent="316" vertex="1">
                    <mxGeometry x="-10" y="470" width="40" height="60" as="geometry"/>
                </mxCell>
                <mxCell id="346" value="2" style="text;html=1;align=center;verticalAlign=middle;resizable=0;points=[];autosize=1;strokeColor=none;fillColor=none;fontSize=35;" parent="316" vertex="1">
                    <mxGeometry x="10" y="212" width="40" height="60" as="geometry"/>
                </mxCell>
                <mxCell id="347" value="3" style="text;html=1;align=center;verticalAlign=middle;resizable=0;points=[];autosize=1;strokeColor=none;fillColor=none;fontSize=35;" parent="316" vertex="1">
                    <mxGeometry x="10" width="40" height="60" as="geometry"/>
                </mxCell>
            </root>
        </mxGraphModel>
    </diagram>
</mxfile>